<svg xmlns="http://www.w3.org/2000/svg" enable-background="new 0 0 3111.5 819.5" viewBox="0 0 3111.5 819.5"><path fill="#3b302c" fill-rule="evenodd" d="M372,428.3c97,0,175.6,83.7,175.5,187  c-0.1,103.3-78.8,187-175.9,187c-97,0-175.6-83.7-175.5-187C196.2,512,275,428.3,372,428.3L372,428.3z" clip-rule="evenodd" class="color3B302C svgShape"/><path fill-rule="evenodd" stroke="#000" stroke-miterlimit="22.926" stroke-width=".567" d="M370,473.8  c75.3,0,135.9,64.9,135.4,145c-0.5,80.1-61.8,145-137.1,145c-75.3,0-135.9-64.9-135.4-145C233.4,538.7,294.8,473.8,370,473.8  L370,473.8z" clip-rule="evenodd" class="colorStroke000 svgStroke"/><path fill="#edf6ec" fill-rule="evenodd" d="M371.6,468.2c-27.4,0-54,8.9-76.6,25.9  c-37.5,28-58.5,73.7-58.8,120.2C235.8,667.3,262,717,305.9,743c19.4,11.4,41.2,17.6,64,17.6c27.4,0,54-8.9,76.6-25.9  c37.5-28,58.5-73.7,58.8-120.2c0.3-53.1-25.8-102.7-69.8-128.7C416.2,474.3,394.3,468.2,371.6,468.2L371.6,468.2z" clip-rule="evenodd" class="colorEDF6EC svgShape"/><path fill="#b9ccbc" fill-rule="evenodd" d="M361.8,487.1c-25.3,0-49.6,8.1-69.9,23.5  c-33.7,25.5-51.6,67.4-50.2,109.7c1.7,48.6,27.9,94.1,69.9,117.9c18.4,10.4,38.9,16,60,16c17.1,0,33.8-3.7,49.1-10.9  c-9.6,2.4-19.5,3.7-29.7,3.7c-21.1,0-41.6-5.4-60-15.4c-42-22.9-68.3-66.7-69.9-113.5c-1.4-40.7,16.5-81,50.2-105.6  c20.3-14.8,44.5-22.6,69.9-22.6c2.6,0,5.2,0.1,7.8,0.2C380.2,488.2,371.1,487.1,361.8,487.1L361.8,487.1z" clip-rule="evenodd" class="colorB9CCBC svgShape"/><path fill-rule="evenodd" d="M371.8,497.1c-60.5,0-104.6,54.4-104.8,115.1c-0.1,61.7,45.1,117.3,106.4,117.3  c60.5,0,104.6-54.4,104.8-115.1C478.3,552.7,433,497.1,371.8,497.1L371.8,497.1z" clip-rule="evenodd" fill="#000000" class="color000 svgShape"/><path fill="#edf6ec" fill-rule="evenodd" d="M372.3,502c-58.7,0-99.9,53.2-100.2,110.1  c-0.3,58,41.7,112.5,101.2,112.5c58.7,0,99.9-53.2,100.2-110.1C473.9,556.6,431.9,502,372.3,502L372.3,502z" clip-rule="evenodd" class="colorEDF6EC svgShape"/><path fill="#5f5d5d" fill-rule="evenodd" d="M375.8,511.6c52.3,0,94.7,46,94.7,102.7  c0,56.7-42.4,102.7-94.7,102.7c-52.3,0-94.7-46-94.7-102.7C281.2,557.6,323.6,511.6,375.8,511.6L375.8,511.6z M375.8,528.8  c42.9,0,77.7,38.3,77.7,85.5c0,47.2-34.8,85.5-77.7,85.5c-42.9,0-77.7-38.3-77.7-85.5C298.1,567.1,332.9,528.8,375.8,528.8  L375.8,528.8z" clip-rule="evenodd" class="color5F5D5D svgShape"/><path fill="#b9ccbc" fill-rule="evenodd" d="M373.5,561.7c30.9,0,55.9,25.4,55.9,56.7c0,31.3-25,56.7-55.9,56.7  c-30.9,0-55.9-25.4-55.9-56.7C317.6,587.1,342.6,561.7,373.5,561.7L373.5,561.7z M373.5,565.8c28.6,0,51.8,23.6,51.8,52.6  c0,29.1-23.2,52.6-51.8,52.6s-51.8-23.6-51.8-52.6C321.6,589.3,344.8,565.8,373.5,565.8L373.5,565.8z" clip-rule="evenodd" class="colorB9CCBC svgShape"/><path fill="#b9ccbc" fill-rule="evenodd" d="M373.5,578.1c21.8,0,39.4,18.1,39.4,40.3  c0,22.3-17.6,40.3-39.4,40.3c-21.8,0-39.4-18.1-39.4-40.3C334,596.1,351.7,578.1,373.5,578.1L373.5,578.1z" clip-rule="evenodd" class="colorB9CCBC svgShape"/><path fill="#edf6ec" fill-rule="evenodd" stroke="#000" stroke-miterlimit="22.926" stroke-width=".567" d="  M372.1,591.8c13.4,0,24.2,11.8,24.2,26.4c0,14.6-10.8,26.4-24.2,26.4c-13.4,0-24.2-11.8-24.2-26.4  C347.9,603.7,358.7,591.8,372.1,591.8L372.1,591.8z" clip-rule="evenodd" class="colorEDF6EC svgShape colorStroke000 svgStroke"/><path fill="#b9ccbc" fill-rule="evenodd" d="M372.1,596.8c10.7,0,19.4,9.6,19.4,21.5c0,11.8-8.7,21.5-19.4,21.5  c-10.7,0-19.4-9.6-19.4-21.5C352.7,606.4,361.4,596.8,372.1,596.8L372.1,596.8z" clip-rule="evenodd" class="colorB9CCBC svgShape"/><path fill-rule="evenodd" d="M391.4 713.2l4.4-12.5 7.3 10.4C403.2 711.1 397.8 716.1 391.4 713.2L391.4 713.2zM384.3 713.4l5.1-13.9-3.2-17.5-7.4-2.3-4.8 19.4C374 699.1 369.1 712.8 384.3 713.4L384.3 713.4zM351 711.3l9-9.3 2.5 12.7C362.5 714.7 355.7 716.8 351 711.3L351 711.3zM344.5 708.2l10.1-10.3 4-17.3-5.8-5.4-12 15.4C340.8 690.6 331 700.9 344.5 708.2L344.5 708.2zM428.8 696.6l-.9-13.3 10.7 6.1C438.6 689.4 435.7 696.4 428.8 696.6L428.8 696.6zM422.3 700l-.9-14.9-9.8-14.4-7.6 1.3 3.3 19.7C407.4 691.7 408.5 706.4 422.3 700L422.3 700zM456.1 664.7L450 653l12.1.7C462.1 653.7 462.3 661.3 456.1 664.7L456.1 664.7zM451.6 670.7l-6.6-13.1-14.6-8.7-6.4 4.6 10.8 16.4C434.8 669.9 441.5 682.8 451.6 670.7L451.6 670.7zM468.3 623.4l-10.1-7.8 11.2-4.9C469.4 610.7 472.6 617.5 468.3 623.4L468.3 623.4zM466.6 630.9l-11.2-8.9-16.6-1.3-4 7.1 16.2 10C451.1 637.8 462.2 646.4 466.6 630.9L466.6 630.9zM463 580.5l-12.3-2.5 8.3-9.5C459 568.5 464.6 573.2 463 580.5L463 580.5zM464.4 588l-13.6-3-15.5 6.4-.8 8.2 18.7 1.7C453.1 601.3 466.6 604 464.4 588L464.4 588zM441.3 543.9l-12.1 3.3 3.7-12.4C433 534.8 439.9 536.6 441.3 543.9L441.3 543.9zM445.6 550.1l-13.5 3.5-11.6 12.8 2.5 7.8 17.6-6.9C440.5 567.3 453.9 563.7 445.6 550.1L445.6 550.1zM407.3 520.6l-9.7 8.5-1.5-12.9C396.1 516.2 403.1 514.7 407.3 520.6L407.3 520.6zM413.5 524.3l-10.9 9.3-5.4 16.9 5.3 5.9 13.2-14.2C415.8 542.2 426.4 532.9 413.5 524.3L413.5 524.3zM367.2 514.9l-5.4 12-6.4-11C355.3 516 361 511.4 367.2 514.9L367.2 514.9zM374.3 515.5l-6.2 13.4 1.7 17.7 7.2 3 6.3-18.9C383.4 530.6 389.4 517.4 374.3 515.5L374.3 515.5zM328.6 527.9l-.2 13.4-10.2-7.1C318.3 534.2 321.7 527.6 328.6 527.9L328.6 527.9zM335.3 525.2l-.4 14.9 8.6 15.3 7.7-.6-1.7-20C349.5 534.8 349.7 520.1 335.3 525.2L335.3 525.2zM298.8 557.2l5.1 12.2-12-1.8C291.9 567.6 292.3 560 298.8 557.2L298.8 557.2zM303.8 551.6l5.6 13.7 13.8 10 6.7-4-9.4-17.3C320.4 554 314.8 540.5 303.8 551.6L303.8 551.6zM283.3 597.2l9.5 8.7-11.6 3.8C281.2 609.7 278.6 602.7 283.3 597.2L283.3 597.2zM285.6 589.9l10.4 9.9 16.4 2.8 4.5-6.7-15.4-11.5C301.6 584.5 291.2 574.9 285.6 589.9L285.6 589.9zM285 640.5l12 3.6-9 8.7C288 652.8 282.9 647.6 285 640.5L285 640.5zM284.3 632.8l13.3 4.2 16-4.9 1.5-8.1-18.4-3.4C296.6 620.6 283.4 616.7 284.3 632.8L284.3 632.8zM302.3 674.3l12.3-2.1-4.7 12C309.9 684.1 303.2 681.7 302.3 674.3L302.3 674.3zM298.6 667.7l13.8-2.2 12.6-11.7-1.9-8L305 651C305 651 291.5 653.4 298.6 667.7L298.6 667.7zM325.1 699.4l10.3-7.5.4 13C335.9 704.8 328.8 705.7 325.1 699.4L325.1 699.4zM319.1 695.1l11.6-8.2 6.8-16.3-4.8-6.4-14.3 12.9C318.4 677.1 307 685.4 319.1 695.1L319.1 695.1zM371.8 601.9c1.7 0 3 1.6 3 3.6 0 2-1.4 3.6-3 3.6-1.7 0-3-1.6-3-3.6C368.8 603.5 370.1 601.9 371.8 601.9L371.8 601.9zM359.6 608c1.1-1.3 3.2-1.3 4.7-.1 1.5 1.3 1.8 3.4.8 4.7-1.1 1.3-3.2 1.3-4.7.1C358.9 611.4 358.5 609.3 359.6 608L359.6 608zM356.3 621.3c-.3-1.7 1-3.3 3-3.6 1.9-.3 3.7.7 4 2.4.3 1.7-1 3.3-3 3.6C358.4 624.1 356.6 623 356.3 621.3L356.3 621.3zM364.3 632.5c-1.4-.8-1.8-2.9-.9-4.6 1-1.7 2.9-2.4 4.4-1.6 1.4.8 1.8 2.9.9 4.6C367.7 632.6 365.8 633.3 364.3 632.5L364.3 632.5zM377.8 633.4c-1.6.6-3.4-.5-4.1-2.3-.7-1.9.1-3.8 1.6-4.4 1.6-.6 3.4.5 4.1 2.3C380.1 630.9 379.4 632.8 377.8 633.4L377.8 633.4zM387.3 623.5c-.6 1.6-2.5 2.3-4.4 1.7-1.8-.7-2.9-2.5-2.3-4.1.6-1.6 2.5-2.3 4.4-1.7C386.8 620.1 387.8 621.9 387.3 623.5L387.3 623.5zM385.8 609.8c.8 1.5.1 3.5-1.5 4.5s-3.7.6-4.6-.9c-.8-1.5-.1-3.5 1.5-4.5C383 608 385 608.4 385.8 609.8L385.8 609.8z" clip-rule="evenodd" fill="#000000" class="color000 svgShape"/><path fill="#5c4d48" fill-rule="evenodd" d="M268.8,722.5c-30.8-29-49.2-68.2-48.4-111.3  c1-52.3,30.2-98.8,74.7-128.4c-40,31.5-65.8,78.1-66.8,130.2C227.6,654.6,242.8,692.8,268.8,722.5L268.8,722.5z" clip-rule="evenodd" class="color5C4D48 svgShape"/><path fill="#534843" fill-rule="evenodd" d="M380.4,769.2c42.6-5.7,81.3-25.8,106.6-59.4  c30.6-40.8,34.7-92.3,16.2-139.1c13.8,45.8,6.8,95.6-23.7,136.2C455,739.3,419.6,760.4,380.4,769.2L380.4,769.2z" clip-rule="evenodd" class="color534843 svgShape"/><path fill="#3b302c" fill-rule="evenodd" d="M2158.1,412.2c97,0,175.6,83.7,175.5,187  c-0.1,103.3-78.8,187-175.9,187c-97,0-175.6-83.7-175.5-187C1982.3,495.9,2061,412.2,2158.1,412.2L2158.1,412.2z" clip-rule="evenodd" class="color3B302C svgShape"/><path fill-rule="evenodd" stroke="#000" stroke-miterlimit="22.926" stroke-width=".567" d="  M2156.1,457.6c75.3,0,135.9,64.9,135.4,145c-0.5,80.1-61.8,145-137.1,145s-135.9-64.9-135.4-145  C2019.4,522.6,2080.8,457.6,2156.1,457.6L2156.1,457.6z" clip-rule="evenodd" class="colorStroke000 svgStroke"/><path fill="#edf6ec" fill-rule="evenodd" d="M2157.6,452c-27.4,0-54,8.9-76.6,25.9  c-37.5,28-58.5,73.7-58.8,120.2c-0.3,53.1,25.8,102.7,69.8,128.7c19.4,11.4,41.2,17.6,64,17.6c27.4,0,54-8.9,76.6-25.9  c37.5-28,58.5-73.7,58.8-120.2c0.3-53.1-25.8-102.7-69.8-128.7C2202.2,458.2,2180.3,452,2157.6,452L2157.6,452z" clip-rule="evenodd" class="colorEDF6EC svgShape"/><path fill="#b9ccbc" fill-rule="evenodd" d="M2147.9,470.9c-25.3,0-49.6,8.1-69.9,23.5  c-33.7,25.5-51.6,67.4-50.2,109.7c1.7,48.6,27.9,94.1,69.9,117.9c18.4,10.4,38.9,16,60,16c17.1,0,33.8-3.7,49.1-10.9  c-9.6,2.4-19.5,3.7-29.7,3.7c-21.1,0-41.6-5.4-60-15.4c-42-22.9-68.3-66.7-69.9-113.5c-1.4-40.7,16.5-81,50.2-105.6  c20.3-14.8,44.5-22.6,69.9-22.6c2.6,0,5.2,0.1,7.8,0.2C2166.2,472,2157.1,470.9,2147.9,470.9L2147.9,470.9z" clip-rule="evenodd" class="colorB9CCBC svgShape"/><path fill-rule="evenodd" d="M2157.8,481c-60.5,0-104.6,54.4-104.8,115.1c-0.1,61.7,45.1,117.3,106.4,117.3  c60.5,0,104.6-54.4,104.8-115.1C2264.3,536.6,2219.1,481,2157.8,481L2157.8,481z" clip-rule="evenodd" fill="#000000" class="color000 svgShape"/><path fill="#edf6ec" fill-rule="evenodd" d="M2158.4,485.9c-58.7,0-99.9,53.2-100.2,110.1  c-0.3,58,41.7,112.5,101.2,112.5c58.7,0,99.9-53.2,100.2-110.1C2260,540.5,2217.9,485.9,2158.4,485.9L2158.4,485.9z" clip-rule="evenodd" class="colorEDF6EC svgShape"/><path fill="#5f5d5d" fill-rule="evenodd" d="M2161.9,495.4c52.3,0,94.7,46,94.7,102.7  c0,56.7-42.4,102.7-94.7,102.7c-52.3,0-94.7-46-94.7-102.7C2067.2,541.4,2109.6,495.4,2161.9,495.4L2161.9,495.4z M2161.9,512.6  c42.9,0,77.7,38.3,77.7,85.5c0,47.2-34.8,85.5-77.7,85.5c-42.9,0-77.7-38.3-77.7-85.5C2084.1,550.9,2118.9,512.6,2161.9,512.6  L2161.9,512.6z" clip-rule="evenodd" class="color5F5D5D svgShape"/><path fill="#b9ccbc" fill-rule="evenodd" d="M2159.5,545.5c30.9,0,55.9,25.4,55.9,56.7s-25,56.7-55.9,56.7  c-30.9,0-55.9-25.4-55.9-56.7S2128.6,545.5,2159.5,545.5L2159.5,545.5z M2159.5,549.6c28.6,0,51.8,23.6,51.8,52.6  c0,29.1-23.2,52.6-51.8,52.6s-51.8-23.6-51.8-52.6C2107.7,573.2,2130.9,549.6,2159.5,549.6L2159.5,549.6z" clip-rule="evenodd" class="colorB9CCBC svgShape"/><path fill="#b9ccbc" fill-rule="evenodd" d="M2159.5,561.9c21.8,0,39.4,18.1,39.4,40.3  c0,22.3-17.7,40.3-39.4,40.3c-21.8,0-39.4-18.1-39.4-40.3C2120.1,580,2137.7,561.9,2159.5,561.9L2159.5,561.9z" clip-rule="evenodd" class="colorB9CCBC svgShape"/><path fill="#edf6ec" fill-rule="evenodd" stroke="#000" stroke-miterlimit="22.926" stroke-width=".567" d="  M2158.1,575.7c13.4,0,24.2,11.8,24.2,26.4c0,14.6-10.8,26.4-24.2,26.4s-24.2-11.8-24.2-26.4C2133.9,587.5,2144.7,575.7,2158.1,575.7  L2158.1,575.7z" clip-rule="evenodd" class="colorEDF6EC svgShape colorStroke000 svgStroke"/><path fill="#b9ccbc" fill-rule="evenodd" d="M2158.1,580.6c10.7,0,19.4,9.6,19.4,21.5  c0,11.8-8.7,21.5-19.4,21.5c-10.7,0-19.4-9.6-19.4-21.5C2138.7,590.2,2147.4,580.6,2158.1,580.6L2158.1,580.6z" clip-rule="evenodd" class="colorB9CCBC svgShape"/><path fill-rule="evenodd" d="M2177.5 697l4.4-12.5 7.3 10.4C2189.2 694.9 2183.9 700 2177.5 697L2177.5 697zM2170.3 697.2l5.1-13.9-3.2-17.5-7.4-2.3-4.8 19.4C2160 682.9 2155.2 696.7 2170.3 697.2L2170.3 697.2zM2137.1 695.1l9-9.3 2.5 12.7C2148.5 698.5 2141.7 700.7 2137.1 695.1L2137.1 695.1zM2130.5 692l10.1-10.3 4-17.3-5.8-5.4-12 15.4C2126.8 674.4 2117 684.7 2130.5 692L2130.5 692zM2214.8 680.5l-.9-13.3 10.7 6.1C2224.6 673.2 2221.8 680.2 2214.8 680.5L2214.8 680.5zM2208.4 683.9l-.9-14.9-9.8-14.4-7.6 1.3 3.3 19.7C2193.5 675.6 2194.5 690.3 2208.4 683.9L2208.4 683.9zM2242.1 648.6l-6.1-11.7 12.1.7C2248.2 637.6 2248.4 645.2 2242.1 648.6L2242.1 648.6zM2237.7 654.6l-6.6-13.1-14.6-8.7-6.4 4.6 10.8 16.4C2220.9 653.8 2227.6 666.6 2237.7 654.6L2237.7 654.6zM2254.3 607.3l-10.1-7.8 11.2-4.9C2255.4 594.6 2258.6 601.4 2254.3 607.3L2254.3 607.3zM2252.6 614.7l-11.2-8.9-16.6-1.3-4 7.1 16.2 10C2237.1 621.6 2248.2 630.2 2252.6 614.7L2252.6 614.7zM2249.1 564.3l-12.3-2.5 8.3-9.5C2245.1 552.3 2250.6 557 2249.1 564.3L2249.1 564.3zM2250.5 571.9l-13.6-3-15.5 6.4-.8 8.2 18.7 1.7C2239.1 585.1 2252.6 587.9 2250.5 571.9L2250.5 571.9zM2227.4 527.8l-12.1 3.3 3.7-12.4C2219 518.7 2225.9 520.5 2227.4 527.8L2227.4 527.8zM2231.6 534l-13.5 3.5-11.6 12.8 2.5 7.8 17.6-6.9C2226.6 551.2 2239.9 547.5 2231.6 534L2231.6 534zM2193.3 504.5l-9.7 8.5-1.5-12.9C2182.1 500 2189.1 498.5 2193.3 504.5L2193.3 504.5zM2199.6 508.2l-10.9 9.3-5.4 16.9 5.3 5.9 13.2-14.2C2201.8 526 2212.4 516.7 2199.6 508.2L2199.6 508.2zM2153.2 498.8l-5.4 12-6.4-11C2141.4 499.8 2147.1 495.3 2153.2 498.8L2153.2 498.8zM2160.4 499.3l-6.2 13.4 1.7 17.7 7.2 3 6.3-18.9C2169.4 514.5 2175.4 501.2 2160.4 499.3L2160.4 499.3zM2114.7 511.8l-.2 13.4-10.2-7.1C2104.3 518.1 2107.7 511.4 2114.7 511.8L2114.7 511.8zM2121.3 509l-.4 14.9 8.6 15.3 7.7-.6-1.7-20C2135.5 518.7 2135.7 503.9 2121.3 509L2121.3 509zM2084.8 541l5.1 12.2-12-1.8C2077.9 551.4 2078.4 543.8 2084.8 541L2084.8 541zM2089.8 535.5l5.6 13.7 13.8 10 6.7-4-9.4-17.3C2106.5 537.8 2100.8 524.4 2089.8 535.5L2089.8 535.5zM2069.3 581l9.5 8.7-11.6 3.8C2067.2 593.6 2064.6 586.5 2069.3 581L2069.3 581zM2071.7 573.8l10.4 9.9 16.4 2.8 4.5-6.7-15.4-11.5C2087.7 568.3 2077.3 558.7 2071.7 573.8L2071.7 573.8zM2071.1 624.3l12 3.6-9 8.7C2074.1 636.7 2068.9 631.4 2071.1 624.3L2071.1 624.3zM2070.3 616.7l13.3 4.2 16-4.9 1.5-8.1-18.4-3.4C2082.7 604.5 2069.5 600.5 2070.3 616.7L2070.3 616.7zM2088.4 658.1l12.3-2.1-4.7 12C2096 667.9 2089.2 665.5 2088.4 658.1L2088.4 658.1zM2084.7 651.5l13.8-2.2 12.6-11.7-1.9-8-18.1 5.3C2091.1 634.9 2077.5 637.3 2084.7 651.5L2084.7 651.5zM2111.1 683.2l10.3-7.5.4 13C2121.9 688.7 2114.8 689.5 2111.1 683.2L2111.1 683.2zM2105.2 678.9l11.6-8.2 6.8-16.3-4.8-6.4-14.3 12.9C2104.4 660.9 2093.1 669.2 2105.2 678.9L2105.2 678.9zM2157.8 585.8c1.7 0 3 1.6 3 3.6 0 2-1.4 3.6-3 3.6-1.7 0-3-1.6-3-3.6C2154.8 587.4 2156.2 585.8 2157.8 585.8L2157.8 585.8zM2145.7 591.8c1.1-1.3 3.2-1.3 4.7-.1 1.5 1.3 1.8 3.4.8 4.7-1.1 1.3-3.2 1.3-4.7.1C2144.9 595.2 2144.6 593.1 2145.7 591.8L2145.7 591.8zM2142.4 605.2c-.3-1.7 1-3.3 3-3.6 1.9-.3 3.7.7 4 2.4.3 1.7-1 3.3-3 3.6C2144.5 607.9 2142.7 606.8 2142.4 605.2L2142.4 605.2zM2150.3 616.3c-1.4-.8-1.8-2.9-.9-4.6 1-1.7 2.9-2.4 4.4-1.6 1.4.8 1.8 2.9.9 4.6C2153.8 616.5 2151.8 617.2 2150.3 616.3L2150.3 616.3zM2163.9 617.3c-1.6.6-3.4-.5-4.1-2.3-.7-1.9.1-3.8 1.6-4.4 1.6-.6 3.4.5 4.1 2.3C2166.2 614.7 2165.4 616.7 2163.9 617.3L2163.9 617.3zM2173.3 607.4c-.6 1.6-2.5 2.3-4.4 1.7-1.8-.7-2.9-2.5-2.3-4.1.6-1.6 2.5-2.3 4.4-1.7C2172.8 603.9 2173.9 605.8 2173.3 607.4L2173.3 607.4zM2171.9 593.7c.8 1.5.1 3.5-1.5 4.5-1.7 1-3.7.6-4.6-.9-.8-1.5-.1-3.5 1.5-4.5C2169 591.8 2171 592.2 2171.9 593.7L2171.9 593.7z" clip-rule="evenodd" fill="#000000" class="color000 svgShape"/><path fill="#5c4d48" fill-rule="evenodd" d="M2054.8,706.3c-30.8-29-49.2-68.2-48.4-111.3  c1-52.3,30.2-98.8,74.7-128.4c-40,31.5-65.8,78.1-66.8,130.2C2013.6,638.5,2028.9,676.6,2054.8,706.3L2054.8,706.3z" clip-rule="evenodd" class="color5C4D48 svgShape"/><path fill="#534843" fill-rule="evenodd" d="M2166.5,753.1c42.6-5.7,81.3-25.8,106.6-59.4  c30.6-40.8,34.7-92.3,16.2-139.1c13.8,45.8,6.8,95.6-23.7,136.2C2241.1,723.2,2205.6,744.3,2166.5,753.1L2166.5,753.1z" clip-rule="evenodd" class="color534843 svgShape"/><polygon fill="#252323" fill-rule="evenodd" points="166.7 606.8 241.2 657.6 853.4 696.4 2025.6 696.4 2654.1 637.5 2482.1 487.4 627.1 447.9 175.9 451.9 166.7 606.8" clip-rule="evenodd" class="color252323 svgShape"/><path fill="#3b302c" fill-rule="evenodd" d="M2231.9,445.2c96.1,0,173.9,82.9,173.8,185.1  c-0.1,102.2-78,185.1-174.1,185.1c-96.1,0-173.9-82.9-173.8-185.1C2057.9,528.1,2135.8,445.2,2231.9,445.2L2231.9,445.2z" clip-rule="evenodd" class="color3B302C svgShape"/><path fill-rule="evenodd" stroke="#000" stroke-miterlimit="22.926" stroke-width=".567" d="  M2229.9,490.2c74.5,0,134.5,64.3,134.1,143.6c-0.5,79.3-61.2,143.6-135.7,143.6c-74.5,0-134.5-64.3-134.1-143.6  C2094.6,554.5,2155.4,490.2,2229.9,490.2L2229.9,490.2z" clip-rule="evenodd" class="colorStroke000 svgStroke"/><path fill="#edf6ec" fill-rule="evenodd" d="M2231.4,484.7c-27.1,0-53.4,8.8-75.9,25.6  c-37.1,27.7-57.9,73-58.2,119c-0.3,52.5,25.6,101.7,69.1,127.4c19.2,11.3,40.8,17.4,63.3,17.4c27.1,0,53.4-8.8,75.8-25.6  c37.1-27.7,57.9-73,58.2-119c0.3-52.5-25.6-101.7-69.1-127.4C2275.6,490.8,2254,484.7,2231.4,484.7L2231.4,484.7z" clip-rule="evenodd" class="colorEDF6EC svgShape"/><path fill="#b9ccbc" fill-rule="evenodd" d="M2221.8,503.4c-25.1,0-49.1,8-69.2,23.2  c-33.4,25.2-51.1,66.8-49.7,108.6c1.6,48.1,27.6,93.2,69.2,116.8c18.2,10.3,38.5,15.9,59.4,15.9c17,0,33.5-3.7,48.6-10.8  c-9.5,2.4-19.4,3.6-29.4,3.6c-20.9,0-41.2-5.3-59.4-15.3c-41.6-22.7-67.6-66.1-69.2-112.3c-1.4-40.3,16.3-80.2,49.7-104.5  c20.1-14.6,44.1-22.3,69.2-22.3c2.6,0,5.2,0.1,7.8,0.2C2240,504.5,2230.9,503.4,2221.8,503.4L2221.8,503.4z" clip-rule="evenodd" class="colorB9CCBC svgShape"/><path fill-rule="evenodd" d="M2231.7,513.3c-59.9,0-103.6,53.8-103.7,114c-0.1,61.1,44.7,116.2,105.3,116.2  c59.9,0,103.6-53.8,103.7-114C2337.1,568.4,2292.3,513.3,2231.7,513.3L2231.7,513.3z" clip-rule="evenodd" fill="#000000" class="color000 svgShape"/><path fill="#edf6ec" fill-rule="evenodd" d="M2232.2,518.2c-58.1,0-98.9,52.7-99.2,109  c-0.3,57.4,41.3,111.4,100.2,111.4c58.1,0,98.9-52.7,99.2-109C2332.8,572.2,2291.1,518.2,2232.2,518.2L2232.2,518.2z" clip-rule="evenodd" class="colorEDF6EC svgShape"/><path fill="#5f5d5d" fill-rule="evenodd" d="M2235.7,527.7c51.8,0,93.7,45.5,93.7,101.7  c0,56.2-42,101.7-93.7,101.7c-51.8,0-93.7-45.5-93.7-101.7C2141.9,573.2,2183.9,527.7,2235.7,527.7L2235.7,527.7z M2235.7,544.7  c42.5,0,76.9,37.9,76.9,84.7c0,46.8-34.5,84.7-76.9,84.7c-42.5,0-76.9-37.9-76.9-84.7C2158.7,582.6,2193.2,544.7,2235.7,544.7  L2235.7,544.7z" clip-rule="evenodd" class="color5F5D5D svgShape"/><path fill="#b9ccbc" fill-rule="evenodd" d="M2233.3,577.3c30.5,0,55.3,25.1,55.3,56.1  c0,31-24.8,56.1-55.3,56.1c-30.5,0-55.3-25.1-55.3-56.1C2178,602.4,2202.8,577.3,2233.3,577.3L2233.3,577.3z M2233.3,581.3  c28.3,0,51.3,23.3,51.3,52.1c0,28.8-23,52.1-51.3,52.1c-28.3,0-51.3-23.3-51.3-52.1C2182,604.6,2205,581.3,2233.3,581.3  L2233.3,581.3z" clip-rule="evenodd" class="colorB9CCBC svgShape"/><path fill="#b9ccbc" fill-rule="evenodd" d="M2233.3,593.5c21.6,0,39,17.9,39,39.9c0,22-17.5,39.9-39,39.9  c-21.6,0-39-17.9-39-39.9C2194.3,611.4,2211.8,593.5,2233.3,593.5L2233.3,593.5z" clip-rule="evenodd" class="colorB9CCBC svgShape"/><path fill="#edf6ec" fill-rule="evenodd" stroke="#000" stroke-miterlimit="22.926" stroke-width=".567" d="  M2232,607.1c13.2,0,24,11.7,24,26.1c0,14.4-10.7,26.1-24,26.1c-13.2,0-24-11.7-24-26.1C2208,618.8,2218.7,607.1,2232,607.1  L2232,607.1z" clip-rule="evenodd" class="colorEDF6EC svgShape colorStroke000 svgStroke"/><path fill="#b9ccbc" fill-rule="evenodd" d="M2232,612c10.6,0,19.2,9.5,19.2,21.2c0,11.7-8.6,21.2-19.2,21.2  c-10.6,0-19.2-9.5-19.2-21.2C2212.8,621.5,2221.4,612,2232,612L2232,612z" clip-rule="evenodd" class="colorB9CCBC svgShape"/><path fill-rule="evenodd" d="M2251.1 727.3l4.4-12.4 7.2 10.3C2262.7 725.1 2257.5 730.1 2251.1 727.3L2251.1 727.3zM2244 727.4l5-13.7-3.1-17.3-7.3-2.2-4.7 19.2C2233.9 713.3 2229 726.9 2244 727.4L2244 727.4zM2211.1 725.4l8.9-9.2 2.5 12.6C2222.5 728.7 2215.7 730.8 2211.1 725.4L2211.1 725.4zM2204.6 722.3l10-10.2 4-17.1-5.7-5.4-11.9 15.3C2201 704.9 2191.3 715.1 2204.6 722.3L2204.6 722.3zM2288.1 710.9l-.9-13.2 10.6 6C2297.8 703.7 2295 710.6 2288.1 710.9L2288.1 710.9zM2281.7 714.2l-.8-14.7-9.7-14.3-7.5 1.3 3.3 19.5C2267 706 2268 720.5 2281.7 714.2L2281.7 714.2zM2315.1 679.3l-6-11.6 12 .7C2321.1 668.4 2321.3 675.9 2315.1 679.3L2315.1 679.3zM2310.7 685.2l-6.6-13-14.4-8.6-6.3 4.6 10.7 16.2C2294.1 684.4 2300.7 697.2 2310.7 685.2L2310.7 685.2zM2327.2 638.4l-10-7.8 11.1-4.8C2328.3 625.8 2331.5 632.5 2327.2 638.4L2327.2 638.4zM2325.5 645.8l-11.1-8.8-16.4-1.2-3.9 7 16.1 9.9C2310.2 652.6 2321.2 661.1 2325.5 645.8L2325.5 645.8zM2322 595.9l-12.1-2.5 8.2-9.4C2318.1 584 2323.6 588.6 2322 595.9L2322 595.9zM2323.4 603.3l-13.5-2.9-15.4 6.3-.8 8.1 18.5 1.7C2312.2 616.5 2325.5 619.2 2323.4 603.3L2323.4 603.3zM2300.5 559.7l-12 3.2 3.7-12.2C2292.2 550.7 2299.1 552.4 2300.5 559.7L2300.5 559.7zM2304.7 565.8l-13.4 3.5-11.5 12.7 2.5 7.7 17.4-6.9C2299.7 582.8 2312.9 579.2 2304.7 565.8L2304.7 565.8zM2266.8 536.6l-9.6 8.4-1.5-12.8C2255.7 532.2 2262.6 530.7 2266.8 536.6L2266.8 536.6zM2273 540.3l-10.8 9.2-5.4 16.7 5.3 5.9 13.1-14.1C2275.2 557.9 2285.7 548.7 2273 540.3L2273 540.3zM2227.1 531l-5.4 11.9-6.4-10.9C2215.4 532 2221 527.5 2227.1 531L2227.1 531zM2234.2 531.5l-6.1 13.2 1.7 17.6 7.1 2.9 6.3-18.7C2243.2 546.5 2249.1 533.4 2234.2 531.5L2234.2 531.5zM2188.9 543.8l-.2 13.2-10.1-7C2178.7 550.1 2182 543.5 2188.9 543.8L2188.9 543.8zM2195.6 541.1l-.4 14.8 8.5 15.1 7.6-.6-1.7-19.8C2209.6 550.7 2209.8 536.1 2195.6 541.1L2195.6 541.1zM2159.4 572.8l5.1 12.1-11.9-1.8C2152.6 583.1 2153 575.6 2159.4 572.8L2159.4 572.8zM2164.3 567.3l5.5 13.5 13.7 9.9 6.7-4-9.3-17.2C2180.8 569.6 2175.2 556.3 2164.3 567.3L2164.3 567.3zM2144.1 612.4l9.4 8.7-11.5 3.8C2141.9 624.8 2139.4 617.8 2144.1 612.4L2144.1 612.4zM2146.4 605.2l10.3 9.8 16.3 2.8 4.5-6.6-15.2-11.3C2162.2 599.8 2151.9 590.3 2146.4 605.2L2146.4 605.2zM2145.8 655.3l11.9 3.6-8.9 8.6C2148.8 667.5 2143.7 662.3 2145.8 655.3L2145.8 655.3zM2145 647.7l13.2 4.2 15.8-4.9 1.5-8-18.3-3.4C2157.3 635.6 2144.2 631.7 2145 647.7L2145 647.7zM2162.9 688.7l12.2-2.1-4.7 11.8C2170.4 698.4 2163.7 696 2162.9 688.7L2162.9 688.7zM2159.2 682.2l13.6-2.2 12.4-11.6-1.8-7.9-17.9 5.2C2165.6 665.7 2152.1 668.1 2159.2 682.2L2159.2 682.2zM2185.4 713.6l10.2-7.4.4 12.9C2196.1 719 2189.1 719.8 2185.4 713.6L2185.4 713.6zM2179.5 709.3l11.5-8.2 6.7-16.1-4.8-6.3-14.2 12.8C2178.8 691.5 2167.6 699.7 2179.5 709.3L2179.5 709.3zM2231.7 617.1c1.7 0 3 1.6 3 3.5 0 2-1.3 3.5-3 3.5-1.7 0-3-1.6-3-3.5C2228.7 618.7 2230 617.1 2231.7 617.1L2231.7 617.1zM2219.6 623.1c1.1-1.3 3.1-1.3 4.6 0 1.5 1.3 1.8 3.3.8 4.6-1.1 1.3-3.1 1.3-4.6 0C2218.9 626.4 2218.6 624.4 2219.6 623.1L2219.6 623.1zM2216.4 636.3c-.3-1.7 1-3.3 2.9-3.6 1.9-.3 3.7.7 4 2.4.3 1.7-1 3.3-2.9 3.6C2218.4 639 2216.7 638 2216.4 636.3L2216.4 636.3zM2224.3 647.3c-1.4-.8-1.8-2.9-.8-4.6 1-1.7 2.9-2.4 4.3-1.6s1.8 2.9.8 4.6C2227.6 647.5 2225.7 648.2 2224.3 647.3L2224.3 647.3zM2237.7 648.3c-1.6.6-3.4-.5-4-2.3-.7-1.8.1-3.8 1.6-4.4 1.6-.6 3.4.5 4 2.3C2239.9 645.7 2239.2 647.7 2237.7 648.3L2237.7 648.3zM2247 638.5c-.6 1.6-2.5 2.3-4.3 1.6-1.8-.7-2.8-2.5-2.3-4.1.6-1.6 2.5-2.3 4.3-1.6C2246.5 635.1 2247.6 636.9 2247 638.5L2247 638.5zM2245.6 624.9c.8 1.5.1 3.4-1.5 4.4-1.7 1-3.7.6-4.5-.9-.8-1.5-.1-3.4 1.5-4.4C2242.7 623.1 2244.8 623.5 2245.6 624.9L2245.6 624.9z" clip-rule="evenodd" fill="#000000" class="color000 svgShape"/><path fill="#5c4d48" fill-rule="evenodd" d="M2129.7,736.5c-30.5-28.7-48.7-67.5-47.9-110.2  c1-51.8,29.9-97.8,74-127.2c-39.6,31.2-65.2,77.4-66.1,128.9C2088.9,669.3,2104,707,2129.7,736.5L2129.7,736.5z" clip-rule="evenodd" class="color5C4D48 svgShape"/><path fill="#534843" fill-rule="evenodd" d="M2240.2,782.7c42.2-5.6,80.5-25.5,105.5-58.8  c30.3-40.4,34.4-91.4,16-137.7c13.7,45.3,6.8,94.7-23.5,134.8C2314.1,753.1,2279,774,2240.2,782.7L2240.2,782.7z" clip-rule="evenodd" class="color534843 svgShape"/><path fill="#3b302c" fill-rule="evenodd" d="M445.5,445.5c97,0,175.6,83.7,175.5,187  c-0.1,103.3-78.8,187-175.9,187s-175.6-83.7-175.5-187C269.7,529.2,348.4,445.5,445.5,445.5L445.5,445.5z" clip-rule="evenodd" class="color3B302C svgShape"/><path fill-rule="evenodd" stroke="#000" stroke-miterlimit="22.926" stroke-width=".567" d="M443.5,491  c75.3,0,135.9,64.9,135.4,145c-0.5,80.1-61.8,145-137.1,145c-75.3,0-135.9-64.9-135.4-145C306.8,555.9,368.2,491,443.5,491  L443.5,491z" clip-rule="evenodd" class="colorStroke000 svgStroke"/><path fill="#edf6ec" fill-rule="evenodd" d="M445,485.4c-27.4,0-54,8.9-76.6,25.9  c-37.5,28-58.5,73.7-58.8,120.2c-0.3,53.1,25.8,102.7,69.8,128.7c19.4,11.4,41.2,17.6,64,17.6c27.4,0,54-8.9,76.6-25.9  c37.5-28,58.5-73.7,58.8-120.2C579.1,578.6,553,529,509,503C489.6,491.5,467.7,485.4,445,485.4L445,485.4z" clip-rule="evenodd" class="colorEDF6EC svgShape"/><path fill="#b9ccbc" fill-rule="evenodd" d="M435.3,504.3c-25.3,0-49.6,8.1-69.9,23.5  c-33.7,25.5-51.6,67.4-50.2,109.7c1.7,48.6,27.9,94.1,69.9,117.9c18.4,10.4,38.9,16,60,16c17.1,0,33.8-3.7,49.1-10.9  c-9.6,2.4-19.5,3.7-29.7,3.7c-21.1,0-41.6-5.4-60-15.4c-42-22.9-68.3-66.7-69.9-113.5c-1.4-40.7,16.5-81,50.2-105.6  c20.3-14.8,44.5-22.6,69.9-22.6c2.6,0,5.2,0.1,7.8,0.2C453.6,505.4,444.5,504.3,435.3,504.3L435.3,504.3z" clip-rule="evenodd" class="colorB9CCBC svgShape"/><path fill-rule="evenodd" d="M445.2,514.3c-60.5,0-104.6,54.4-104.8,115.1c-0.1,61.7,45.1,117.3,106.4,117.3  c60.5,0,104.6-54.4,104.8-115.1C551.7,569.9,506.5,514.3,445.2,514.3L445.2,514.3z" clip-rule="evenodd" fill="#000000" class="color000 svgShape"/><path fill="#edf6ec" fill-rule="evenodd" d="M445.8,519.2c-58.7,0-99.9,53.2-100.2,110.1  c-0.3,58,41.7,112.5,101.2,112.5c58.7,0,99.9-53.2,100.2-110.1C547.4,573.8,505.3,519.2,445.8,519.2L445.8,519.2z" clip-rule="evenodd" class="colorEDF6EC svgShape"/><path fill="#5f5d5d" fill-rule="evenodd" d="M449.3,528.8c52.3,0,94.7,46,94.7,102.7  c0,56.7-42.4,102.7-94.7,102.7c-52.3,0-94.7-46-94.7-102.7C354.6,574.8,397,528.8,449.3,528.8L449.3,528.8z M449.3,546  c42.9,0,77.7,38.3,77.7,85.5c0,47.2-34.8,85.5-77.7,85.5c-42.9,0-77.7-38.3-77.7-85.5C371.6,584.3,406.4,546,449.3,546L449.3,546z" clip-rule="evenodd" class="color5F5D5D svgShape"/><path fill="#b9ccbc" fill-rule="evenodd" d="M446.9,578.9c30.9,0,55.9,25.4,55.9,56.7c0,31.3-25,56.7-55.9,56.7  c-30.9,0-55.9-25.4-55.9-56.7C391,604.3,416.1,578.9,446.9,578.9L446.9,578.9z M446.9,583c28.6,0,51.8,23.6,51.8,52.6  s-23.2,52.6-51.8,52.6c-28.6,0-51.8-23.6-51.8-52.6S418.3,583,446.9,583L446.9,583z" clip-rule="evenodd" class="colorB9CCBC svgShape"/><path fill="#b9ccbc" fill-rule="evenodd" d="M446.9,595.3c21.8,0,39.4,18.1,39.4,40.3  c0,22.3-17.7,40.3-39.4,40.3c-21.8,0-39.4-18.1-39.4-40.3C407.5,613.3,425.1,595.3,446.9,595.3L446.9,595.3z" clip-rule="evenodd" class="colorB9CCBC svgShape"/><path fill="#edf6ec" fill-rule="evenodd" stroke="#000" stroke-miterlimit="22.926" stroke-width=".567" d="  M445.5,609c13.4,0,24.2,11.8,24.2,26.4c0,14.6-10.8,26.4-24.2,26.4c-13.4,0-24.2-11.8-24.2-26.4C421.3,620.9,432.2,609,445.5,609  L445.5,609z" clip-rule="evenodd" class="colorEDF6EC svgShape colorStroke000 svgStroke"/><path fill="#b9ccbc" fill-rule="evenodd" d="M445.5,614c10.7,0,19.4,9.6,19.4,21.5c0,11.8-8.7,21.5-19.4,21.5  c-10.7,0-19.4-9.6-19.4-21.5C426.2,623.6,434.8,614,445.5,614L445.5,614z" clip-rule="evenodd" class="colorB9CCBC svgShape"/><path fill-rule="evenodd" d="M464.9 730.4l4.4-12.5 7.3 10.4C476.6 728.3 471.3 733.3 464.9 730.4L464.9 730.4zM457.7 730.5l5.1-13.9-3.2-17.5-7.4-2.3-4.8 19.4C447.5 716.3 442.6 730 457.7 730.5L457.7 730.5zM424.5 728.5l9-9.3 2.5 12.7C436 731.9 429.1 734 424.5 728.5L424.5 728.5zM417.9 725.4l10.1-10.3 4-17.3-5.8-5.4-12 15.4C414.3 707.8 404.4 718.1 417.9 725.4L417.9 725.4zM502.2 713.8l-.9-13.3 10.7 6.1C512 706.6 509.2 713.6 502.2 713.8L502.2 713.8zM495.8 717.2l-.9-14.9-9.8-14.4-7.6 1.3 3.3 19.7C480.9 708.9 481.9 723.6 495.8 717.2L495.8 717.2zM529.6 681.9l-6.1-11.7 12.1.7C535.6 670.9 535.8 678.5 529.6 681.9L529.6 681.9zM525.1 687.9l-6.6-13.1-14.6-8.7-6.4 4.6 10.8 16.4C508.3 687.1 515 700 525.1 687.9L525.1 687.9zM541.7 640.6l-10.1-7.8 11.2-4.9C542.9 627.9 546 634.7 541.7 640.6L541.7 640.6zM540 648.1l-11.2-8.9-16.6-1.3-4 7.1 16.2 10C524.5 655 535.7 663.6 540 648.1L540 648.1zM536.5 597.7l-12.3-2.5 8.3-9.5C532.5 585.7 538.1 590.4 536.5 597.7L536.5 597.7zM537.9 605.2l-13.6-3-15.5 6.4-.8 8.2 18.7 1.7C526.5 618.5 540 621.2 537.9 605.2L537.9 605.2zM514.8 561.1l-12.1 3.3 3.7-12.4C506.4 552 513.3 553.8 514.8 561.1L514.8 561.1zM519 567.3l-13.5 3.5-11.6 12.8 2.5 7.8 17.6-6.9C514 584.5 527.3 580.9 519 567.3L519 567.3zM480.7 537.8l-9.7 8.5-1.5-12.9C469.6 533.4 476.5 531.9 480.7 537.8L480.7 537.8zM487 541.5l-10.9 9.3-5.4 16.9 5.3 5.9 13.2-14.2C489.2 559.4 499.8 550.1 487 541.5L487 541.5zM440.6 532.1l-5.4 12-6.4-11C428.8 533.2 434.5 528.6 440.6 532.1L440.6 532.1zM447.8 532.7l-6.2 13.4 1.7 17.7 7.2 3 6.3-18.9C456.8 547.8 462.8 534.6 447.8 532.7L447.8 532.7zM402.1 545.1l-.2 13.4-10.2-7.1C391.7 551.4 395.1 544.8 402.1 545.1L402.1 545.1zM408.8 542.4l-.4 14.9 8.6 15.3 7.7-.6-1.7-20C422.9 552 423.1 537.3 408.8 542.4L408.8 542.4zM372.2 574.4l5.1 12.2-12-1.8C365.4 584.8 365.8 577.2 372.2 574.4L372.2 574.4zM377.2 568.8l5.6 13.7 13.8 10 6.7-4-9.4-17.3C393.9 571.2 388.2 557.7 377.2 568.8L377.2 568.8zM356.7 614.4l9.5 8.7-11.6 3.8C354.6 626.9 352 619.9 356.7 614.4L356.7 614.4zM359.1 607.1l10.4 9.9 16.4 2.8 4.5-6.7-15.4-11.5C375.1 601.7 364.7 592.1 359.1 607.1L359.1 607.1zM358.5 657.7l12 3.6-9 8.7C361.5 670 356.3 664.8 358.5 657.7L358.5 657.7zM357.7 650l13.3 4.2 16-4.9 1.5-8.1-18.4-3.4C370.1 637.8 356.9 633.9 357.7 650L357.7 650zM375.8 691.5l12.3-2.1-4.7 12C383.4 701.3 376.6 698.9 375.8 691.5L375.8 691.5zM372.1 684.9l13.8-2.2 12.6-11.7-1.9-8-18.1 5.3C378.5 668.2 364.9 670.6 372.1 684.9L372.1 684.9zM398.5 716.6l10.3-7.5.4 13C409.3 722 402.2 722.9 398.5 716.6L398.5 716.6zM392.6 712.3l11.6-8.2 6.8-16.3-4.8-6.4-14.3 12.9C391.8 694.3 380.5 702.6 392.6 712.3L392.6 712.3zM445.3 619.1c1.7 0 3 1.6 3 3.6 0 2-1.4 3.6-3 3.6-1.7 0-3-1.6-3-3.6C442.2 620.7 443.6 619.1 445.3 619.1L445.3 619.1zM433.1 625.2c1.1-1.3 3.2-1.3 4.7-.1 1.5 1.3 1.8 3.4.8 4.7-1.1 1.3-3.2 1.3-4.7.1C432.3 628.6 432 626.5 433.1 625.2L433.1 625.2zM429.8 638.5c-.3-1.7 1-3.3 3-3.6 1.9-.3 3.7.7 4 2.4.3 1.7-1 3.3-3 3.6C431.9 641.3 430.1 640.2 429.8 638.5L429.8 638.5zM437.8 649.7c-1.4-.8-1.8-2.9-.9-4.6 1-1.7 2.9-2.4 4.4-1.6 1.4.8 1.8 2.9.9 4.6C441.2 649.8 439.2 650.5 437.8 649.7L437.8 649.7zM451.3 650.6c-1.6.6-3.4-.5-4.1-2.3-.7-1.9.1-3.8 1.6-4.4 1.6-.6 3.4.5 4.1 2.3C453.6 648.1 452.9 650 451.3 650.6L451.3 650.6zM460.7 640.7c-.6 1.6-2.5 2.3-4.4 1.7-1.8-.7-2.9-2.5-2.3-4.1.6-1.6 2.5-2.3 4.4-1.7C460.3 637.3 461.3 639.1 460.7 640.7L460.7 640.7zM459.3 627c.8 1.5.1 3.5-1.5 4.5-1.7 1-3.7.6-4.6-.9-.8-1.5-.1-3.5 1.5-4.5C456.4 625.2 458.5 625.6 459.3 627L459.3 627z" clip-rule="evenodd" fill="#000000" class="color000 svgShape"/><path fill="#5c4d48" fill-rule="evenodd" d="M342.3,739.7c-30.8-29-49.2-68.2-48.4-111.3  c1-52.3,30.2-98.8,74.7-128.4c-40,31.5-65.8,78.1-66.8,130.2C301,671.8,316.3,710,342.3,739.7L342.3,739.7z" clip-rule="evenodd" class="color5C4D48 svgShape"/><path fill="#534843" fill-rule="evenodd" d="M453.9,786.4c42.6-5.7,81.3-25.8,106.6-59.4  c30.6-40.8,34.7-92.3,16.2-139.1c13.8,45.8,6.8,95.6-23.7,136.2C528.5,756.5,493,777.6,453.9,786.4L453.9,786.4z" clip-rule="evenodd" class="color534843 svgShape"/><path fill-rule="evenodd" d="M1145,164.5h28.7c12.4,0,22.6,10.2,22.6,22.6v15.8c0,13.8-11.3,25.1-25.1,25.1  H1145c-17.5,0-31.7-14.3-31.7-31.7v0C1113.3,178.8,1127.5,164.5,1145,164.5L1145,164.5z" clip-rule="evenodd" fill="#000000" class="color000 svgShape"/><path fill-rule="evenodd" d="M1144.5,166.4c-16.2,0-29.4,13.4-29.4,29.9c0,16.4,13.2,29.9,29.4,29.9h27.1  c12.6,0,22.9-10.4,22.9-23.2v-15.8c0-11.4-9.2-20.7-20.4-20.7H1144.5L1144.5,166.4z" clip-rule="evenodd" fill="#000000" class="color000 svgShape"/><path fill-rule="evenodd" d="M1154.4,196.4c5.6,0,10.3,3.7,10.3,8.2c0,4.5-4.7,8.2-10.3,8.2h-27.1  c-2,0-3.7-1.4-3.7-3v-12.5c0-0.5,0.6-1,1.2-1H1154.4L1154.4,196.4z" clip-rule="evenodd" fill="#000000" class="color000 svgShape"/><path fill-rule="evenodd" d="M1118.4 189.8c-.6 2.2-.9 4.6-.9 7 0 14.7 11.9 26.7 26.3 26.7h27.1c1.7 0 3.3-.2 4.8-.6-1-.9-1.8-2-2.5-3.1-.5 0-1.1.1-1.6.1h-27.1c-14.5 0-26.3-12-26.3-26.7C1118.2 192 1118.3 190.9 1118.4 189.8L1118.4 189.8zM1144.5 169.5c-8.2 0-15.6 3.9-20.4 9.9 4.7-4.3 10.8-6.9 17.6-6.9h29.5c9.5 0 17.3 7.9 17.3 17.6V206c0 4.6-1.5 8.8-4.1 12.2 4.3-3.7 7-9.2 7-15.3v-15.8c0-9.6-7.8-17.6-17.3-17.6H1144.5L1144.5 169.5z" clip-rule="evenodd" fill="#000000" class="color000 svgShape"/><path fill-rule="evenodd" stroke="#000" stroke-miterlimit="22.926" stroke-width=".283" d="  M1095.5,206.9c5.4,0,9.8,5.3,9.8,11.9c0,6.6-4.4,11.9-9.8,11.9c-5.4,0-9.8-5.3-9.8-11.9C1085.7,212.2,1090.1,206.9,1095.5,206.9  L1095.5,206.9z" clip-rule="evenodd" class="colorStroke000 svgStroke"/><path fill-rule="evenodd" d="M1095.5,208.2c4.7,0,8.5,4.8,8.5,10.6c0,5.9-3.8,10.6-8.5,10.6s-8.5-4.8-8.5-10.6  C1086.9,212.9,1090.8,208.2,1095.5,208.2L1095.5,208.2z" clip-rule="evenodd" fill="#000000" class="color000 svgShape"/><path fill-rule="evenodd" d="M1095.5,209.4c0.1,0,0.3,0,0.4,0c-3.2,1-5.6,4.7-5.6,9.1c0,5,3,9.1,6.9,9.4  c-0.5,0.2-1.1,0.2-1.7,0.2c-4,0-7.3-4.2-7.3-9.4C1088.2,213.6,1091.4,209.4,1095.5,209.4L1095.5,209.4z" clip-rule="evenodd" fill="#000000" class="color000 svgShape"/><path fill-rule="evenodd" d="M1092.3,213.1c0,0-8,10.5,7.7,13.7l21.8-15.8l-0.2-9.6L1092.3,213.1L1092.3,213.1z  " clip-rule="evenodd" fill="#000000" class="color000 svgShape"/><path fill-rule="evenodd" d="M1093.1,214.2c-0.9,1.3-1.6,3.2-1.6,4.7c0,4.2,4.8,5.9,8.2,6.7l20.9-15.1l-0.2-7.1  L1093.1,214.2L1093.1,214.2z" clip-rule="evenodd" fill="#000000" class="color000 svgShape"/><path fill-rule="evenodd" d="M1093.9,215.2c-0.6,1-1.2,2.5-1.2,3.7c0,3.3,4,4.7,6.7,5.3l19.9-14.4l0-1.8  l-18.4,13.3c-2.7-0.7-6.8-2.1-6.7-5.3c0-0.3,0-0.6,0.1-0.9L1093.9,215.2L1093.9,215.2z" clip-rule="evenodd" fill="#000000" class="color000 svgShape"/><path fill-rule="evenodd" stroke="#E61D4C" stroke-miterlimit="22.926" stroke-width=".216" d="M1123.8,197.5  c3.1,0,5.5,3,5.5,6.7c0,3.7-2.5,6.7-5.5,6.7c-3,0-5.5-3-5.5-6.7C1118.3,200.5,1120.8,197.5,1123.8,197.5L1123.8,197.5z" clip-rule="evenodd" class="colorStrokeE61D4C svgStroke"/><path fill-rule="evenodd" stroke="#000" stroke-miterlimit="22.926" stroke-width=".216" d="M1123.8,196.3  c3.7,0,6.8,3.6,6.8,7.9c0,4.4-3,7.9-6.8,7.9c-3.7,0-6.8-3.6-6.8-7.9C1117.1,199.8,1120.1,196.3,1123.8,196.3L1123.8,196.3z" clip-rule="evenodd" class="colorStroke000 svgStroke"/><path fill-rule="evenodd" d="M1125.9 196.7c2.7 1 4.7 4 4.7 7.6 0 4.3-3 7.8-6.6 7.9-2.7-1-4.7-4-4.7-7.6C1119.3 200.3 1122.2 196.7 1125.9 196.7L1125.9 196.7zM873.8 190.7c.3 2.6-.5 5.3-2.4 7.2l-61.9 65.6c-3.3 3.5-8.9 3.7-12.4.3-3.5-3.4-3.6-9.1-.3-12.6l61.9-65.6c2.3-2.5 5.8-3.3 8.9-2.4L1038.9 1.5c1.8-1.9 4.9-2 6.8-.2 1.9 1.9 2 4.9.1 6.9L873.8 190.7 873.8 190.7z" clip-rule="evenodd" fill="#000000" class="color000 svgShape"/><path fill="#cacbd2" fill-rule="evenodd" d="M1044.1,6.5L871.2,189.9c0.6,2.2,0.1,4.6-1.5,6.3l-61.9,65.6  c-2.4,2.6-6.5,2.7-9,0.2l0,0c-2.5-2.5-2.6-6.6-0.2-9.2l61.9-65.6c2.1-2.2,5.3-2.6,7.7-1.2L1040.6,3.2c0.9-1,2.4-1,3.4-0.1l0,0  C1045,4,1045,5.6,1044.1,6.5L1044.1,6.5z" clip-rule="evenodd" class="colorCACBD2 svgShape"/><path fill="#5f5d5d" fill-rule="evenodd" d="M800.1,263c-0.5-0.3-0.9-0.6-1.3-1l0,0c-1.1-1.1-1.7-2.4-1.9-3.8  l61.7-65.4c1.1-1.1,2.8-1.2,4-0.1h0c1.1,1.1,1.2,2.9,0.1,4L800.1,263L800.1,263z" clip-rule="evenodd" class="color5F5D5D svgShape"/><polygon fill-rule="evenodd" points="61.5 484.9 14.8 438.1 16 303.1 97.3 298.5 61.5 484.9" clip-rule="evenodd" fill="#000000" class="color000 svgShape"/><defs><polyline id="a" points="58.5 476.8 58.5 475.4 59.9 475.4 59.9 476.8 58.5 476.8" fill="#000000" class="color000 svgShape"/></defs><defs><polyline id="b" points="57.9 475.6 57.9 474.8 59.9 474.8 59.9 475.6 57.9 475.6" fill="#000000" class="color000 svgShape"/></defs><defs><polyline id="c" points="57.3 475 57.3 474.2 59.9 474.2 59.9 475 57.3 475" fill="#000000" class="color000 svgShape"/></defs><defs><polyline id="d" points="56.7 474.4 56.7 473.6 59.9 473.6 59.9 474.4 56.7 474.4" fill="#000000" class="color000 svgShape"/></defs><defs><polyline id="e" points="56.1 473.8 56.1 473 60.5 473 60.5 473.8 56.1 473.8" fill="#000000" class="color000 svgShape"/></defs><defs><polyline id="f" points="54.9 473.2 54.9 472.4 60.5 472.4 60.5 473.2 54.9 473.2" fill="#000000" class="color000 svgShape"/></defs><defs><polyline id="g" points="54.3 472.6 54.3 471.8 60.5 471.8 60.5 472.6 54.3 472.6" fill="#000000" class="color000 svgShape"/></defs><defs><polyline id="h" points="53.7 472 53.7 471.2 60.5 471.2 60.5 472 53.7 472" fill="#000000" class="color000 svgShape"/></defs><defs><polyline id="i" points="53.1 471.4 53.1 470.6 60.5 470.6 60.5 471.4 53.1 471.4" fill="#000000" class="color000 svgShape"/></defs><defs><polyline id="j" points="52.5 470.8 52.5 470 60.5 470 60.5 470.8 52.5 470.8" fill="#000000" class="color000 svgShape"/></defs><defs><polyline id="k" points="52 470.2 52 469.4 61 469.4 61 470.2 52 470.2" fill="#000000" class="color000 svgShape"/></defs><defs><polyline id="l" points="51.4 469.6 51.4 468.8 61 468.8 61 469.6 51.4 469.6" fill="#000000" class="color000 svgShape"/></defs><defs><polyline id="m" points="50.8 469 50.8 468.2 61 468.2 61 469 50.8 469" fill="#000000" class="color000 svgShape"/></defs><defs><polyline id="n" points="50.2 468.4 50.2 467.6 61 467.6 61 468.4 50.2 468.4" fill="#000000" class="color000 svgShape"/></defs><defs><polyline id="o" points="49.6 467.8 49.6 467 61 467 61 467.8 49.6 467.8" fill="#000000" class="color000 svgShape"/></defs><defs><polyline id="p" points="49 467.2 49 466.4 61.6 466.4 61.6 467.2 49 467.2" fill="#000000" class="color000 svgShape"/></defs><defs><polyline id="q" points="48.4 466.6 48.4 465.8 61.6 465.8 61.6 466.6 48.4 466.6" fill="#000000" class="color000 svgShape"/></defs><defs><polyline id="r" points="47.8 466 47.8 465.2 61.6 465.2 61.6 466 47.8 466" fill="#000000" class="color000 svgShape"/></defs><defs><polyline id="s" points="47.2 465.4 47.2 464.6 61.6 464.6 61.6 465.4 47.2 465.4" fill="#000000" class="color000 svgShape"/></defs><defs><polyline id="t" points="46.6 464.8 46.6 464 61.6 464 61.6 464.8 46.6 464.8" fill="#000000" class="color000 svgShape"/></defs><defs><polyline id="u" points="46 464.2 46 463.4 62.2 463.4 62.2 464.2 46 464.2" fill="#000000" class="color000 svgShape"/></defs><defs><polyline id="v" points="45.4 463.6 45.4 462.8 62.2 462.8 62.2 463.6 45.4 463.6" fill="#000000" class="color000 svgShape"/></defs><defs><polyline id="w" points="44.8 463 44.8 462.2 62.2 462.2 62.2 463 44.8 463" fill="#000000" class="color000 svgShape"/></defs><defs><polyline id="x" points="44.2 462.4 44.2 461.6 62.2 461.6 62.2 462.4 44.2 462.4" fill="#000000" class="color000 svgShape"/></defs><defs><polyline id="y" points="43.6 461.8 43.6 461 62.2 461 62.2 461.8 43.6 461.8" fill="#000000" class="color000 svgShape"/></defs><defs><polyline id="z" points="43 461.2 43 460.4 62.8 460.4 62.8 461.2 43 461.2" fill="#000000" class="color000 svgShape"/></defs><defs><polyline id="A" points="42.5 460.6 42.5 459.8 62.8 459.8 62.8 460.6 42.5 460.6" fill="#000000" class="color000 svgShape"/></defs><defs><polyline id="B" points="41.9 460 41.9 459.2 62.8 459.2 62.8 460 41.9 460" fill="#000000" class="color000 svgShape"/></defs><defs><polyline id="C" points="41.3 459.4 41.3 458.6 62.8 458.6 62.8 459.4 41.3 459.4" fill="#000000" class="color000 svgShape"/></defs><defs><polyline id="D" points="40.7 458.8 40.7 458 62.8 458 62.8 458.8 40.7 458.8" fill="#000000" class="color000 svgShape"/></defs><defs><polyline id="E" points="40.1 458.2 40.1 457.4 63.4 457.4 63.4 458.2 40.1 458.2" fill="#000000" class="color000 svgShape"/></defs><defs><polyline id="F" points="39.5 457.6 39.5 456.8 63.4 456.8 63.4 457.6 39.5 457.6" fill="#000000" class="color000 svgShape"/></defs><defs><polyline id="G" points="38.9 457 38.9 456.2 63.4 456.2 63.4 457 38.9 457" fill="#000000" class="color000 svgShape"/></defs><defs><polyline id="H" points="38.3 456.4 38.3 455.6 63.4 455.6 63.4 456.4 38.3 456.4" fill="#000000" class="color000 svgShape"/></defs><defs><polyline id="I" points="37.7 455.8 37.7 455 63.4 455 63.4 455.8 37.7 455.8" fill="#000000" class="color000 svgShape"/></defs><defs><polyline id="J" points="37.1 455.2 37.1 454.4 64 454.4 64 455.2 37.1 455.2" fill="#000000" class="color000 svgShape"/></defs><defs><polyline id="K" points="36.5 454.6 36.5 453.8 64 453.8 64 454.6 36.5 454.6" fill="#000000" class="color000 svgShape"/></defs><defs><polyline id="L" points="35.9 454 35.9 453.2 64 453.2 64 454 35.9 454" fill="#000000" class="color000 svgShape"/></defs><defs><polyline id="M" points="35.3 453.4 35.3 452.6 64 452.6 64 453.4 35.3 453.4" fill="#000000" class="color000 svgShape"/></defs><defs><polyline id="N" points="34.7 452.8 34.7 452 64 452 64 452.8 34.7 452.8" fill="#000000" class="color000 svgShape"/></defs><defs><polyline id="O" points="34.1 452.2 34.1 451.4 64 451.4 64 452.2 34.1 452.2" fill="#000000" class="color000 svgShape"/></defs><defs><polyline id="P" points="33.6 451.6 33.6 450.8 64.6 450.8 64.6 451.6 33.6 451.6" fill="#000000" class="color000 svgShape"/></defs><defs><polyline id="Q" points="33 451 33 450.2 64.6 450.2 64.6 451 33 451" fill="#000000" class="color000 svgShape"/></defs><defs><polyline id="R" points="32.4 450.4 32.4 449.6 64.6 449.6 64.6 450.4 32.4 450.4" fill="#000000" class="color000 svgShape"/></defs><defs><polyline id="S" points="31.8 449.8 31.8 449 64.6 449 64.6 449.8 31.8 449.8" fill="#000000" class="color000 svgShape"/></defs><defs><polyline id="T" points="31.2 449.2 31.2 448.4 64.6 448.4 64.6 449.2 31.2 449.2" fill="#000000" class="color000 svgShape"/></defs><defs><polyline id="U" points="30.6 448.6 30.6 447.8 65.2 447.8 65.2 448.6 30.6 448.6" fill="#000000" class="color000 svgShape"/></defs><defs><polyline id="V" points="30 448 30 447.2 65.2 447.2 65.2 448 30 448" fill="#000000" class="color000 svgShape"/></defs><defs><polyline id="W" points="29.4 447.4 29.4 446.6 65.2 446.6 65.2 447.4 29.4 447.4" fill="#000000" class="color000 svgShape"/></defs><defs><polyline id="X" points="28.8 446.8 28.8 446 65.2 446 65.2 446.8 28.8 446.8" fill="#000000" class="color000 svgShape"/></defs><defs><polyline id="Y" points="28.2 446.2 28.2 445.4 65.2 445.4 65.2 446.2 28.2 446.2" fill="#000000" class="color000 svgShape"/></defs><defs><polyline id="Z" points="27.6 445.6 27.6 444.8 65.8 444.8 65.8 445.6 27.6 445.6" fill="#000000" class="color000 svgShape"/></defs><defs><polyline id="aa" points="27 445 27 444.2 65.8 444.2 65.8 445 27 445" fill="#000000" class="color000 svgShape"/></defs><defs><polyline id="ab" points="26.4 444.4 26.4 443.6 65.8 443.6 65.8 444.4 26.4 444.4" fill="#000000" class="color000 svgShape"/></defs><defs><polyline id="ac" points="25.8 443.8 25.8 443 65.8 443 65.8 443.8 25.8 443.8" fill="#000000" class="color000 svgShape"/></defs><defs><polyline id="ad" points="25.2 443.2 25.2 442.4 65.8 442.4 65.8 443.2 25.2 443.2" fill="#000000" class="color000 svgShape"/></defs><defs><polyline id="ae" points="24.6 442.6 24.6 441.8 66.4 441.8 66.4 442.6 24.6 442.6" fill="#000000" class="color000 svgShape"/></defs><defs><polyline id="af" points="24.1 442 24.1 441.2 66.4 441.2 66.4 442 24.1 442" fill="#000000" class="color000 svgShape"/></defs><defs><polyline id="ag" points="23.5 441.4 23.5 440.6 66.4 440.6 66.4 441.4 23.5 441.4" fill="#000000" class="color000 svgShape"/></defs><defs><polyline id="ah" points="22.9 440.8 22.9 440 66.4 440 66.4 440.8 22.9 440.8" fill="#000000" class="color000 svgShape"/></defs><defs><polyline id="ai" points="22.3 440.2 22.3 439.4 66.4 439.4 66.4 440.2 22.3 440.2" fill="#000000" class="color000 svgShape"/></defs><defs><polyline id="aj" points="21.7 439.6 21.7 438.8 67 438.8 67 439.6 21.7 439.6" fill="#000000" class="color000 svgShape"/></defs><defs><polyline id="ak" points="21.1 439 21.1 438.2 67 438.2 67 439 21.1 439" fill="#000000" class="color000 svgShape"/></defs><defs><polyline id="al" points="20.5 438.4 20.5 437.6 67 437.6 67 438.4 20.5 438.4" fill="#000000" class="color000 svgShape"/></defs><defs><polyline id="am" points="19.9 437.8 19.9 437 67 437 67 437.8 19.9 437.8" fill="#000000" class="color000 svgShape"/></defs><defs><polyline id="an" points="19.3 437.2 19.3 436.4 67 436.4 67 437.2 19.3 437.2" fill="#000000" class="color000 svgShape"/></defs><defs><polyline id="ao" points="18.7 436.6 18.7 435.8 67 435.8 67 436.6 18.7 436.6" fill="#000000" class="color000 svgShape"/></defs><defs><polyline id="ap" points="18.7 436 18.7 432.8 67.6 432.8 67.6 436 18.7 436" fill="#000000" class="color000 svgShape"/></defs><defs><polyline id="aq" points="18.7 433 18.7 429.8 68.2 429.8 68.2 433 18.7 433" fill="#000000" class="color000 svgShape"/></defs><defs><polyline id="ar" points="18.7 430 18.7 426.8 68.8 426.8 68.8 430 18.7 430" fill="#000000" class="color000 svgShape"/></defs><defs><polyline id="as" points="18.7 427 18.7 423.8 69.4 423.8 69.4 427 18.7 427" fill="#000000" class="color000 svgShape"/></defs><defs><polyline id="at" points="18.7 424 18.7 420.2 70 420.2 70 424 18.7 424" fill="#000000" class="color000 svgShape"/></defs><defs><polyline id="au" points="18.7 420.4 18.7 417.2 70.5 417.2 70.5 420.4 18.7 420.4" fill="#000000" class="color000 svgShape"/></defs><defs><polyline id="av" points="18.7 417.4 18.7 414.2 71.1 414.2 71.1 417.4 18.7 417.4" fill="#000000" class="color000 svgShape"/></defs><defs><polyline id="aw" points="18.7 414.4 18.7 411.2 71.7 411.2 71.7 414.4 18.7 414.4" fill="#000000" class="color000 svgShape"/></defs><defs><polyline id="ax" points="18.7 411.4 18.7 408.2 72.3 408.2 72.3 411.4 18.7 411.4" fill="#000000" class="color000 svgShape"/></defs><defs><polyline id="ay" points="18.7 408.4 18.7 405.2 72.9 405.2 72.9 408.4 18.7 408.4" fill="#000000" class="color000 svgShape"/></defs><defs><polyline id="az" points="18.7 405.4 18.7 401.7 73.5 401.7 73.5 405.4 18.7 405.4" fill="#000000" class="color000 svgShape"/></defs><defs><polyline id="aA" points="18.7 401.8 18.7 398.7 74.1 398.7 74.1 401.8 18.7 401.8" fill="#000000" class="color000 svgShape"/></defs><defs><polyline id="aB" points="18.7 398.8 18.7 395.7 74.7 395.7 74.7 398.8 18.7 398.8" fill="#000000" class="color000 svgShape"/></defs><defs><polyline id="aC" points="18.7 395.8 18.7 392.7 75.3 392.7 75.3 395.8 18.7 395.8" fill="#000000" class="color000 svgShape"/></defs><defs><polyline id="aD" points="18.7 392.8 18.7 389.7 75.9 389.7 75.9 392.8 18.7 392.8" fill="#000000" class="color000 svgShape"/></defs><defs><polyline id="aE" points="18.7 389.8 18.7 386.1 76.5 386.1 76.5 389.8 18.7 389.8" fill="#000000" class="color000 svgShape"/></defs><defs><polyline id="aF" points="18.7 386.3 18.7 383.1 77.1 383.1 77.1 386.3 18.7 386.3" fill="#000000" class="color000 svgShape"/></defs><defs><polyline id="aG" points="18.7 383.3 18.7 380.1 77.7 380.1 77.7 383.3 18.7 383.3" fill="#000000" class="color000 svgShape"/></defs><defs><polyline id="aH" points="18.7 380.3 18.7 377.1 78.3 377.1 78.3 380.3 18.7 380.3" fill="#000000" class="color000 svgShape"/></defs><defs><polyline id="aI" points="18.7 377.3 18.7 374.1 78.9 374.1 78.9 377.3 18.7 377.3" fill="#000000" class="color000 svgShape"/></defs><defs><polyline id="aJ" points="18.7 374.3 18.7 370.5 79.4 370.5 79.4 374.3 18.7 374.3" fill="#000000" class="color000 svgShape"/></defs><defs><polyline id="aK" points="19.3 370.7 19.3 367.5 80 367.5 80 370.7 19.3 370.7" fill="#000000" class="color000 svgShape"/></defs><defs><polyline id="aL" points="19.3 367.7 19.3 364.5 80.6 364.5 80.6 367.7 19.3 367.7" fill="#000000" class="color000 svgShape"/></defs><defs><polyline id="aM" points="19.3 364.7 19.3 363.3 81.2 363.3 81.2 364.7 19.3 364.7" fill="#000000" class="color000 svgShape"/></defs><defs><polyline id="aN" points="20.5 363.5 20.5 362.7 81.2 362.7 81.2 363.5 20.5 363.5" fill="#000000" class="color000 svgShape"/></defs><defs><polyline id="aO" points="21.1 362.9 21.1 362.1 81.2 362.1 81.2 362.9 21.1 362.9" fill="#000000" class="color000 svgShape"/></defs><defs><polyline id="aP" points="22.3 362.3 22.3 361.5 81.2 361.5 81.2 362.3 22.3 362.3" fill="#000000" class="color000 svgShape"/></defs><defs><polyline id="aQ" points="22.9 361.7 22.9 360.9 81.8 360.9 81.8 361.7 22.9 361.7" fill="#000000" class="color000 svgShape"/></defs><defs><polyline id="aR" points="24.1 361.1 24.1 360.3 81.8 360.3 81.8 361.1 24.1 361.1" fill="#000000" class="color000 svgShape"/></defs><defs><polyline id="aS" points="24.6 360.5 24.6 359.7 81.8 359.7 81.8 360.5 24.6 360.5" fill="#000000" class="color000 svgShape"/></defs><defs><polyline id="aT" points="25.8 359.9 25.8 359.1 81.8 359.1 81.8 359.9 25.8 359.9" fill="#000000" class="color000 svgShape"/></defs><defs><polyline id="aU" points="26.4 359.3 26.4 358.5 81.8 358.5 81.8 359.3 26.4 359.3" fill="#000000" class="color000 svgShape"/></defs><defs><polyline id="aV" points="27.6 358.7 27.6 357.9 82.4 357.9 82.4 358.7 27.6 358.7" fill="#000000" class="color000 svgShape"/></defs><defs><polyline id="aW" points="28.2 358.1 28.2 357.3 82.4 357.3 82.4 358.1 28.2 358.1" fill="#000000" class="color000 svgShape"/></defs><defs><polyline id="aX" points="29.4 357.5 29.4 356.7 82.4 356.7 82.4 357.5 29.4 357.5" fill="#000000" class="color000 svgShape"/></defs><defs><polyline id="aY" points="30 356.9 30 356.1 82.4 356.1 82.4 356.9 30 356.9" fill="#000000" class="color000 svgShape"/></defs><defs><polyline id="aZ" points="31.2 356.3 31.2 355.5 82.4 355.5 82.4 356.3 31.2 356.3" fill="#000000" class="color000 svgShape"/></defs><defs><polyline id="ba" points="31.8 355.7 31.8 354.9 83 354.9 83 355.7 31.8 355.7" fill="#000000" class="color000 svgShape"/></defs><defs><polyline id="bb" points="33 355.1 33 354.3 83 354.3 83 355.1 33 355.1" fill="#000000" class="color000 svgShape"/></defs><defs><polyline id="bc" points="33.6 354.5 33.6 353.7 83 353.7 83 354.5 33.6 354.5" fill="#000000" class="color000 svgShape"/></defs><defs><polyline id="bd" points="34.7 353.9 34.7 353.1 83 353.1 83 353.9 34.7 353.9" fill="#000000" class="color000 svgShape"/></defs><defs><polyline id="be" points="35.3 353.3 35.3 352.5 83 352.5 83 353.3 35.3 353.3" fill="#000000" class="color000 svgShape"/></defs><defs><polyline id="bf" points="36.5 352.7 36.5 351.9 83 351.9 83 352.7 36.5 352.7" fill="#000000" class="color000 svgShape"/></defs><defs><polyline id="bg" points="37.1 352.1 37.1 351.3 83.6 351.3 83.6 352.1 37.1 352.1" fill="#000000" class="color000 svgShape"/></defs><defs><polyline id="bh" points="38.3 351.5 38.3 350.7 83.6 350.7 83.6 351.5 38.3 351.5" fill="#000000" class="color000 svgShape"/></defs><defs><polyline id="bi" points="39.5 350.9 39.5 350.1 83.6 350.1 83.6 350.9 39.5 350.9" fill="#000000" class="color000 svgShape"/></defs><defs><polyline id="bj" points="40.1 350.3 40.1 349.5 83.6 349.5 83.6 350.3 40.1 350.3" fill="#000000" class="color000 svgShape"/></defs><defs><polyline id="bk" points="41.3 349.7 41.3 348.9 83.6 348.9 83.6 349.7 41.3 349.7" fill="#000000" class="color000 svgShape"/></defs><defs><polyline id="bl" points="41.9 349.1 41.9 348.3 84.2 348.3 84.2 349.1 41.9 349.1" fill="#000000" class="color000 svgShape"/></defs><defs><polyline id="bm" points="43 348.5 43 347.7 84.2 347.7 84.2 348.5 43 348.5" fill="#000000" class="color000 svgShape"/></defs><defs><polyline id="bn" points="43.6 347.9 43.6 347.1 84.2 347.1 84.2 347.9 43.6 347.9" fill="#000000" class="color000 svgShape"/></defs><defs><polyline id="bo" points="44.8 347.3 44.8 346.5 84.2 346.5 84.2 347.3 44.8 347.3" fill="#000000" class="color000 svgShape"/></defs><defs><polyline id="bp" points="45.4 346.7 45.4 345.9 84.2 345.9 84.2 346.7 45.4 346.7" fill="#000000" class="color000 svgShape"/></defs><defs><polyline id="bq" points="46.6 346.1 46.6 345.3 84.8 345.3 84.8 346.1 46.6 346.1" fill="#000000" class="color000 svgShape"/></defs><defs><polyline id="br" points="47.2 345.5 47.2 344.7 84.8 344.7 84.8 345.5 47.2 345.5" fill="#000000" class="color000 svgShape"/></defs><defs><polyline id="bs" points="48.4 344.9 48.4 344.1 84.8 344.1 84.8 344.9 48.4 344.9" fill="#000000" class="color000 svgShape"/></defs><defs><polyline id="bt" points="49 344.3 49 343.5 84.8 343.5 84.8 344.3 49 344.3" fill="#000000" class="color000 svgShape"/></defs><defs><polyline id="bu" points="50.2 343.7 50.2 342.9 84.8 342.9 84.8 343.7 50.2 343.7" fill="#000000" class="color000 svgShape"/></defs><defs><polyline id="bv" points="50.8 343.1 50.8 342.3 85.4 342.3 85.4 343.1 50.8 343.1" fill="#000000" class="color000 svgShape"/></defs><defs><polyline id="bw" points="52 342.5 52 341.7 85.4 341.7 85.4 342.5 52 342.5" fill="#000000" class="color000 svgShape"/></defs><defs><polyline id="bx" points="52.5 341.9 52.5 341.1 85.4 341.1 85.4 341.9 52.5 341.9" fill="#000000" class="color000 svgShape"/></defs><defs><polyline id="by" points="53.7 341.3 53.7 340.5 85.4 340.5 85.4 341.3 53.7 341.3" fill="#000000" class="color000 svgShape"/></defs><defs><polyline id="bz" points="54.3 340.7 54.3 339.9 85.4 339.9 85.4 340.7 54.3 340.7" fill="#000000" class="color000 svgShape"/></defs><defs><polyline id="bA" points="56.1 340.1 56.1 339.3 85.4 339.3 85.4 340.1 56.1 340.1" fill="#000000" class="color000 svgShape"/></defs><defs><polyline id="bB" points="57.3 339.5 57.3 338.7 86 338.7 86 339.5 57.3 339.5" fill="#000000" class="color000 svgShape"/></defs><defs><polyline id="bC" points="57.9 338.9 57.9 338.1 86 338.1 86 338.9 57.9 338.9" fill="#000000" class="color000 svgShape"/></defs><defs><polyline id="bD" points="59.1 338.3 59.1 337.5 86 337.5 86 338.3 59.1 338.3" fill="#000000" class="color000 svgShape"/></defs><defs><polyline id="bE" points="59.7 337.7 59.7 336.9 86 336.9 86 337.7 59.7 337.7" fill="#000000" class="color000 svgShape"/></defs><defs><polyline id="bF" points="60.9 337.1 60.9 336.3 86 336.3 86 337.1 60.9 337.1" fill="#000000" class="color000 svgShape"/></defs><defs><polyline id="bG" points="61.5 336.5 61.5 335.7 86.6 335.7 86.6 336.5 61.5 336.5" fill="#000000" class="color000 svgShape"/></defs><defs><polyline id="bH" points="62.6 335.9 62.6 335.1 86.6 335.1 86.6 335.9 62.6 335.9" fill="#000000" class="color000 svgShape"/></defs><defs><polyline id="bI" points="63.2 335.3 63.2 334.5 86.6 334.5 86.6 335.3 63.2 335.3" fill="#000000" class="color000 svgShape"/></defs><defs><polyline id="bJ" points="64.4 334.7 64.4 333.9 86.6 333.9 86.6 334.7 64.4 334.7" fill="#000000" class="color000 svgShape"/></defs><defs><polyline id="bK" points="65 334.1 65 333.3 86.6 333.3 86.6 334.1 65 334.1" fill="#000000" class="color000 svgShape"/></defs><defs><polyline id="bL" points="66.2 333.5 66.2 332.7 87.2 332.7 87.2 333.5 66.2 333.5" fill="#000000" class="color000 svgShape"/></defs><defs><polyline id="bM" points="66.8 332.9 66.8 332.1 87.2 332.1 87.2 332.9 66.8 332.9" fill="#000000" class="color000 svgShape"/></defs><defs><polyline id="bN" points="68 332.3 68 331.5 87.2 331.5 87.2 332.3 68 332.3" fill="#000000" class="color000 svgShape"/></defs><defs><polyline id="bO" points="68.6 331.7 68.6 330.9 87.2 330.9 87.2 331.7 68.6 331.7" fill="#000000" class="color000 svgShape"/></defs><defs><polyline id="bP" points="69.8 331.1 69.8 330.3 87.2 330.3 87.2 331.1 69.8 331.1" fill="#000000" class="color000 svgShape"/></defs><defs><polyline id="bQ" points="70.4 330.5 70.4 329.7 87.8 329.7 87.8 330.5 70.4 330.5" fill="#000000" class="color000 svgShape"/></defs><defs><polyline id="bR" points="71.5 329.9 71.5 329.1 87.8 329.1 87.8 329.9 71.5 329.9" fill="#000000" class="color000 svgShape"/></defs><defs><polyline id="bS" points="72.1 329.3 72.1 328.5 87.8 328.5 87.8 329.3 72.1 329.3" fill="#000000" class="color000 svgShape"/></defs><defs><polyline id="bT" points="73.3 328.7 73.3 327.9 87.8 327.9 87.8 328.7 73.3 328.7" fill="#000000" class="color000 svgShape"/></defs><defs><polyline id="bU" points="74.5 328.1 74.5 327.3 87.8 327.3 87.8 328.1 74.5 328.1" fill="#000000" class="color000 svgShape"/></defs><defs><polyline id="bV" points="75.1 327.5 75.1 326.7 88.4 326.7 88.4 327.5 75.1 327.5" fill="#000000" class="color000 svgShape"/></defs><defs><polyline id="bW" points="76.3 326.9 76.3 326.1 88.4 326.1 88.4 326.9 76.3 326.9" fill="#000000" class="color000 svgShape"/></defs><defs><polyline id="bX" points="76.9 326.3 76.9 325.5 88.4 325.5 88.4 326.3 76.9 326.3" fill="#000000" class="color000 svgShape"/></defs><defs><polyline id="bY" points="78.1 325.7 78.1 324.9 88.4 324.9 88.4 325.7 78.1 325.7" fill="#000000" class="color000 svgShape"/></defs><defs><polyline id="bZ" points="78.7 325.1 78.7 324.3 88.4 324.3 88.4 325.1 78.7 325.1" fill="#000000" class="color000 svgShape"/></defs><defs><polyline id="ca" points="79.9 324.5 79.9 323.7 88.4 323.7 88.4 324.5 79.9 324.5" fill="#000000" class="color000 svgShape"/></defs><defs><polyline id="cb" points="80.4 323.9 80.4 323.1 88.9 323.1 88.9 323.9 80.4 323.9" fill="#000000" class="color000 svgShape"/></defs><defs><polyline id="cc" points="81.6 323.3 81.6 322.5 88.9 322.5 88.9 323.3 81.6 323.3" fill="#000000" class="color000 svgShape"/></defs><defs><polyline id="cd" points="82.2 322.7 82.2 321.9 88.9 321.9 88.9 322.7 82.2 322.7" fill="#000000" class="color000 svgShape"/></defs><defs><polyline id="ce" points="83.4 322.1 83.4 321.3 88.9 321.3 88.9 322.1 83.4 322.1" fill="#000000" class="color000 svgShape"/></defs><defs><polyline id="cf" points="84 321.5 84 320.7 88.9 320.7 88.9 321.5 84 321.5" fill="#000000" class="color000 svgShape"/></defs><defs><polyline id="cg" points="85.2 320.9 85.2 320.1 89.5 320.1 89.5 320.9 85.2 320.9" fill="#000000" class="color000 svgShape"/></defs><defs><polyline id="ch" points="85.8 320.3 85.8 319.5 89.5 319.5 89.5 320.3 85.8 320.3" fill="#000000" class="color000 svgShape"/></defs><defs><polyline id="ci" points="87 319.7 87 318.9 89.5 318.9 89.5 319.7 87 319.7" fill="#000000" class="color000 svgShape"/></defs><defs><polyline id="cj" points="87.6 319.1 87.6 318.3 89.5 318.3 89.5 319.1 87.6 319.1" fill="#000000" class="color000 svgShape"/></defs><defs><polyline id="ck" points="88.8 318.5 88.8 317.7 89.5 317.7 89.5 318.5 88.8 318.5" fill="#000000" class="color000 svgShape"/></defs><path fill-rule="evenodd" d="M2903.8,263.9h130.6c15.1,0,27.5,12.4,27.5,27.5v68.6c0,15.1-12.4,27.5-27.5,27.5  h-130.6c-15.1,0-27.5-12.4-27.5-27.5v-68.6C2876.3,276.2,2888.7,263.9,2903.8,263.9L2903.8,263.9z" clip-rule="evenodd" fill="#000000" class="color000 svgShape"/><defs><polyline id="cl" points="2887.4 366.7 2887.4 365.9 2889.4 365.9 2889.4 366.7 2887.4 366.7" fill="#000000" class="color000 svgShape"/></defs><defs><polyline id="cm" points="2886.8 366.1 2886.8 365.3 2891.2 365.3 2891.2 366.1 2886.8 366.1" fill="#000000" class="color000 svgShape"/></defs><defs><polyline id="cn" points="2886.2 365.5 2886.2 364.7 2893 364.7 2893 365.5 2886.2 365.5" fill="#000000" class="color000 svgShape"/></defs><defs><polyline id="co" points="2886.2 364.9 2886.2 364.1 2894.8 364.1 2894.8 364.9 2886.2 364.9" fill="#000000" class="color000 svgShape"/></defs><defs><polyline id="cp" points="2885.6 364.3 2885.6 363.5 2897.2 363.5 2897.2 364.3 2885.6 364.3" fill="#000000" class="color000 svgShape"/></defs><defs><polyline id="cq" points="2885 363.7 2885 362.9 2899 362.9 2899 363.7 2885 363.7" fill="#000000" class="color000 svgShape"/></defs><defs><polyline id="cr" points="2885 363.1 2885 362.3 2900.8 362.3 2900.8 363.1 2885 363.1" fill="#000000" class="color000 svgShape"/></defs><defs><polyline id="cs" points="2884.4 362.5 2884.4 361.7 2902.6 361.7 2902.6 362.5 2884.4 362.5" fill="#000000" class="color000 svgShape"/></defs><defs><polyline id="ct" points="2884.4 361.9 2884.4 361.1 2904.4 361.1 2904.4 361.9 2884.4 361.9" fill="#000000" class="color000 svgShape"/></defs><defs><polyline id="cu" points="2883.8 361.3 2883.8 360.5 2906.1 360.5 2906.1 361.3 2883.8 361.3" fill="#000000" class="color000 svgShape"/></defs><defs><polyline id="cv" points="2883.8 360.7 2883.8 359.9 2907.9 359.9 2907.9 360.7 2883.8 360.7" fill="#000000" class="color000 svgShape"/></defs><defs><polyline id="cw" points="2883.2 360.1 2883.2 359.3 2910.3 359.3 2910.3 360.1 2883.2 360.1" fill="#000000" class="color000 svgShape"/></defs><defs><polyline id="cx" points="2883.2 359.5 2883.2 358.7 2912.1 358.7 2912.1 359.5 2883.2 359.5" fill="#000000" class="color000 svgShape"/></defs><defs><polyline id="cy" points="2882.6 358.9 2882.6 358.1 2913.9 358.1 2913.9 358.9 2882.6 358.9" fill="#000000" class="color000 svgShape"/></defs><defs><polyline id="cz" points="2882.6 358.3 2882.6 357.5 2915.7 357.5 2915.7 358.3 2882.6 358.3" fill="#000000" class="color000 svgShape"/></defs><defs><polyline id="cA" points="2882 357.7 2882 356.9 2917.5 356.9 2917.5 357.7 2882 357.7" fill="#000000" class="color000 svgShape"/></defs><defs><polyline id="cB" points="2882 357.1 2882 356.3 2919.3 356.3 2919.3 357.1 2882 357.1" fill="#000000" class="color000 svgShape"/></defs><defs><polyline id="cC" points="2881.5 356.5 2881.5 355.7 2921.1 355.7 2921.1 356.5 2881.5 356.5" fill="#000000" class="color000 svgShape"/></defs><defs><polyline id="cD" points="2881.5 355.9 2881.5 355.1 2923.5 355.1 2923.5 355.9 2881.5 355.9" fill="#000000" class="color000 svgShape"/></defs><defs><polyline id="cE" points="2881.5 355.3 2881.5 354.5 2925.3 354.5 2925.3 355.3 2881.5 355.3" fill="#000000" class="color000 svgShape"/></defs><defs><polyline id="cF" points="2880.9 354.7 2880.9 353.9 2927.1 353.9 2927.1 354.7 2880.9 354.7" fill="#000000" class="color000 svgShape"/></defs><defs><polyline id="cG" points="2880.9 354.1 2880.9 353.3 2928.9 353.3 2928.9 354.1 2880.9 354.1" fill="#000000" class="color000 svgShape"/></defs><defs><polyline id="cH" points="2880.9 353.5 2880.9 352.7 2930.6 352.7 2930.6 353.5 2880.9 353.5" fill="#000000" class="color000 svgShape"/></defs><defs><polyline id="cI" points="2880.3 352.9 2880.3 352.1 2932.4 352.1 2932.4 352.9 2880.3 352.9" fill="#000000" class="color000 svgShape"/></defs><defs><polyline id="cJ" points="2880.3 352.3 2880.3 351.5 2934.2 351.5 2934.2 352.3 2880.3 352.3" fill="#000000" class="color000 svgShape"/></defs><defs><polyline id="cK" points="2880.3 351.7 2880.3 350.9 2936 350.9 2936 351.7 2880.3 351.7" fill="#000000" class="color000 svgShape"/></defs><defs><polyline id="cL" points="2880.3 351.1 2880.3 350.3 2938.4 350.3 2938.4 351.1 2880.3 351.1" fill="#000000" class="color000 svgShape"/></defs><defs><polyline id="cM" points="2879.7 350.5 2879.7 349.7 2940.2 349.7 2940.2 350.5 2879.7 350.5" fill="#000000" class="color000 svgShape"/></defs><defs><polyline id="cN" points="2879.7 349.9 2879.7 349.1 2942 349.1 2942 349.9 2879.7 349.9" fill="#000000" class="color000 svgShape"/></defs><defs><polyline id="cO" points="2879.7 349.3 2879.7 348.5 2943.8 348.5 2943.8 349.3 2879.7 349.3" fill="#000000" class="color000 svgShape"/></defs><defs><polyline id="cP" points="2879.7 348.7 2879.7 347.9 2945.6 347.9 2945.6 348.7 2879.7 348.7" fill="#000000" class="color000 svgShape"/></defs><defs><polyline id="cQ" points="2879.7 348.1 2879.7 347.3 2947.4 347.3 2947.4 348.1 2879.7 348.1" fill="#000000" class="color000 svgShape"/></defs><defs><polyline id="cR" points="2879.1 347.5 2879.1 346.7 2949.2 346.7 2949.2 347.5 2879.1 347.5" fill="#000000" class="color000 svgShape"/></defs><defs><polyline id="cS" points="2879.1 346.9 2879.1 346.2 2951.6 346.2 2951.6 346.9 2879.1 346.9" fill="#000000" class="color000 svgShape"/></defs><defs><polyline id="cT" points="2879.1 346.3 2879.1 345.6 2953.4 345.6 2953.4 346.3 2879.1 346.3" fill="#000000" class="color000 svgShape"/></defs><defs><polyline id="cU" points="2879.1 345.7 2879.1 345 2955.2 345 2955.2 345.7 2879.1 345.7" fill="#000000" class="color000 svgShape"/></defs><defs><polyline id="cV" points="2879.1 345.1 2879.1 344.4 2956.9 344.4 2956.9 345.1 2879.1 345.1" fill="#000000" class="color000 svgShape"/></defs><defs><polyline id="cW" points="2879.1 344.5 2879.1 343.8 2958.7 343.8 2958.7 344.5 2879.1 344.5" fill="#000000" class="color000 svgShape"/></defs><defs><polyline id="cX" points="2879.1 343.9 2879.1 343.2 2960.5 343.2 2960.5 343.9 2879.1 343.9" fill="#000000" class="color000 svgShape"/></defs><defs><polyline id="cY" points="2879.1 343.4 2879.1 342.6 2962.3 342.6 2962.3 343.4 2879.1 343.4" fill="#000000" class="color000 svgShape"/></defs><defs><polyline id="cZ" points="2879.1 342.8 2879.1 342 2964.7 342 2964.7 342.8 2879.1 342.8" fill="#000000" class="color000 svgShape"/></defs><defs><polyline id="da" points="2879.1 342.2 2879.1 341.4 2966.5 341.4 2966.5 342.2 2879.1 342.2" fill="#000000" class="color000 svgShape"/></defs><defs><polyline id="db" points="2879.1 341.6 2879.1 340.8 2968.3 340.8 2968.3 341.6 2879.1 341.6" fill="#000000" class="color000 svgShape"/></defs><defs><polyline id="dc" points="2879.1 341 2879.1 340.2 2970.7 340.2 2970.7 341 2879.1 341" fill="#000000" class="color000 svgShape"/></defs><defs><polyline id="dd" points="2879.1 340.4 2879.1 339.6 2972.5 339.6 2972.5 340.4 2879.1 340.4" fill="#000000" class="color000 svgShape"/></defs><defs><polyline id="de" points="2879.1 339.8 2879.1 339 2974.3 339 2974.3 339.8 2879.1 339.8" fill="#000000" class="color000 svgShape"/></defs><defs><polyline id="df" points="2879.1 339.2 2879.1 338.4 2976.1 338.4 2976.1 339.2 2879.1 339.2" fill="#000000" class="color000 svgShape"/></defs><defs><polyline id="dg" points="2879.1 338.6 2879.1 337.8 2978.5 337.8 2978.5 338.6 2879.1 338.6" fill="#000000" class="color000 svgShape"/></defs><defs><polyline id="dh" points="2879.1 338 2879.1 337.2 2980.3 337.2 2980.3 338 2879.1 338" fill="#000000" class="color000 svgShape"/></defs><defs><polyline id="di" points="2879.1 337.4 2879.1 336.6 2982 336.6 2982 337.4 2879.1 337.4" fill="#000000" class="color000 svgShape"/></defs><defs><polyline id="dj" points="2879.1 336.8 2879.1 336 2983.8 336 2983.8 336.8 2879.1 336.8" fill="#000000" class="color000 svgShape"/></defs><defs><polyline id="dk" points="2879.1 336.2 2879.1 335.4 2985.6 335.4 2985.6 336.2 2879.1 336.2" fill="#000000" class="color000 svgShape"/></defs><defs><polyline id="dl" points="2879.1 335.6 2879.1 334.8 2987.4 334.8 2987.4 335.6 2879.1 335.6" fill="#000000" class="color000 svgShape"/></defs><defs><polyline id="dm" points="2879.1 335 2879.1 334.2 2989.2 334.2 2989.2 335 2879.1 335" fill="#000000" class="color000 svgShape"/></defs><defs><polyline id="dn" points="2879.1 334.4 2879.1 333.6 2991 333.6 2991 334.4 2879.1 334.4" fill="#000000" class="color000 svgShape"/></defs><defs><polyline id="do" points="2879.1 333.8 2879.1 333 2993.4 333 2993.4 333.8 2879.1 333.8" fill="#000000" class="color000 svgShape"/></defs><defs><polyline id="dp" points="2879.1 333.2 2879.1 332.4 2995.2 332.4 2995.2 333.2 2879.1 333.2" fill="#000000" class="color000 svgShape"/></defs><defs><polyline id="dq" points="2879.1 332.6 2879.1 331.8 2997 331.8 2997 332.6 2879.1 332.6" fill="#000000" class="color000 svgShape"/></defs><defs><polyline id="dr" points="2879.1 332 2879.1 331.2 2998.8 331.2 2998.8 332 2879.1 332" fill="#000000" class="color000 svgShape"/></defs><defs><polyline id="ds" points="2879.1 331.4 2879.1 330.6 3000.6 330.6 3000.6 331.4 2879.1 331.4" fill="#000000" class="color000 svgShape"/></defs><defs><polyline id="dt" points="2879.1 330.8 2879.1 330 3002.4 330 3002.4 330.8 2879.1 330.8" fill="#000000" class="color000 svgShape"/></defs><defs><polyline id="du" points="2879.1 330.2 2879.1 329.4 3004.2 329.4 3004.2 330.2 2879.1 330.2" fill="#000000" class="color000 svgShape"/></defs><defs><polyline id="dv" points="2879.1 329.6 2879.1 328.8 3006.6 328.8 3006.6 329.6 2879.1 329.6" fill="#000000" class="color000 svgShape"/></defs><defs><polyline id="dw" points="2879.1 329 2879.1 328.2 3008.3 328.2 3008.3 329 2879.1 329" fill="#000000" class="color000 svgShape"/></defs><defs><polyline id="dx" points="2879.1 328.4 2879.1 327.6 3010.1 327.6 3010.1 328.4 2879.1 328.4" fill="#000000" class="color000 svgShape"/></defs><defs><polyline id="dy" points="2879.1 327.8 2879.1 327 3011.9 327 3011.9 327.8 2879.1 327.8" fill="#000000" class="color000 svgShape"/></defs><defs><polyline id="dz" points="2879.1 327.2 2879.1 326.4 3013.7 326.4 3013.7 327.2 2879.1 327.2" fill="#000000" class="color000 svgShape"/></defs><defs><polyline id="dA" points="2879.1 326.6 2879.1 325.8 3015.5 325.8 3015.5 326.6 2879.1 326.6" fill="#000000" class="color000 svgShape"/></defs><defs><polyline id="dB" points="2879.1 326 2879.1 325.2 3017.3 325.2 3017.3 326 2879.1 326" fill="#000000" class="color000 svgShape"/></defs><defs><polyline id="dC" points="2879.1 325.4 2879.1 324 3019.7 324 3019.7 325.4 2879.1 325.4" fill="#000000" class="color000 svgShape"/></defs><defs><polyline id="dD" points="2879.1 324.2 2879.1 323.4 3021.5 323.4 3021.5 324.2 2879.1 324.2" fill="#000000" class="color000 svgShape"/></defs><defs><polyline id="dE" points="2879.1 323.6 2879.1 322.8 3023.3 322.8 3023.3 323.6 2879.1 323.6" fill="#000000" class="color000 svgShape"/></defs><defs><polyline id="dF" points="2879.1 323 2879.1 322.2 3025.1 322.2 3025.1 323 2879.1 323" fill="#000000" class="color000 svgShape"/></defs><defs><polyline id="dG" points="2879.1 322.4 2879.1 321.6 3026.9 321.6 3026.9 322.4 2879.1 322.4" fill="#000000" class="color000 svgShape"/></defs><defs><polyline id="dH" points="2879.1 321.8 2879.1 321 3028.7 321 3028.7 321.8 2879.1 321.8" fill="#000000" class="color000 svgShape"/></defs><defs><polyline id="dI" points="2879.1 321.2 2879.1 320.4 3030.5 320.4 3030.5 321.2 2879.1 321.2" fill="#000000" class="color000 svgShape"/></defs><defs><polyline id="dJ" points="2879.1 320.6 2879.1 319.8 3032.8 319.8 3032.8 320.6 2879.1 320.6" fill="#000000" class="color000 svgShape"/></defs><defs><polyline id="dK" points="2879.1 320 2879.1 319.2 3034.6 319.2 3034.6 320 2879.1 320" fill="#000000" class="color000 svgShape"/></defs><defs><polyline id="dL" points="2879.1 319.4 2879.1 318.6 3036.4 318.6 3036.4 319.4 2879.1 319.4" fill="#000000" class="color000 svgShape"/></defs><defs><polyline id="dM" points="2879.1 318.8 2879.1 318.1 3038.2 318.1 3038.2 318.8 2879.1 318.8" fill="#000000" class="color000 svgShape"/></defs><defs><polyline id="dN" points="2879.1 318.2 2879.1 317.5 3040 317.5 3040 318.2 2879.1 318.2" fill="#000000" class="color000 svgShape"/></defs><defs><polyline id="dO" points="2879.1 317.6 2879.1 316.9 3041.8 316.9 3041.8 317.6 2879.1 317.6" fill="#000000" class="color000 svgShape"/></defs><defs><polyline id="dP" points="2879.1 317 2879.1 316.3 3043.6 316.3 3043.6 317 2879.1 317" fill="#000000" class="color000 svgShape"/></defs><defs><polyline id="dQ" points="2879.1 316.4 2879.1 315.7 3045.4 315.7 3045.4 316.4 2879.1 316.4" fill="#000000" class="color000 svgShape"/></defs><defs><polyline id="dR" points="2879.1 315.9 2879.1 315.1 3047.8 315.1 3047.8 315.9 2879.1 315.9" fill="#000000" class="color000 svgShape"/></defs><defs><polyline id="dS" points="2879.1 315.3 2879.1 314.5 3049.6 314.5 3049.6 315.3 2879.1 315.3" fill="#000000" class="color000 svgShape"/></defs><defs><polyline id="dT" points="2879.1 314.7 2879.1 313.9 3051.4 313.9 3051.4 314.7 2879.1 314.7" fill="#000000" class="color000 svgShape"/></defs><defs><polyline id="dU" points="2879.1 314.1 2879.1 313.3 3053.2 313.3 3053.2 314.1 2879.1 314.1" fill="#000000" class="color000 svgShape"/></defs><defs><polyline id="dV" points="2879.1 313.5 2879.1 312.7 3055 312.7 3055 313.5 2879.1 313.5" fill="#000000" class="color000 svgShape"/></defs><defs><polyline id="dW" points="2879.1 312.9 2879.1 312.1 3056.8 312.1 3056.8 312.9 2879.1 312.9" fill="#000000" class="color000 svgShape"/></defs><defs><polyline id="dX" points="2879.1 312.3 2879.1 311.5 3058.5 311.5 3058.5 312.3 2879.1 312.3" fill="#000000" class="color000 svgShape"/></defs><defs><polyline id="dY" points="2879.1 311.7 2879.1 302.5 3059.1 302.5 3059.1 311.7 2879.1 311.7" fill="#000000" class="color000 svgShape"/></defs><defs><polyline id="dZ" points="2879.7 302.7 2879.7 299.5 3058.5 299.5 3058.5 302.7 2879.7 302.7" fill="#000000" class="color000 svgShape"/></defs><defs><polyline id="ea" points="2880.3 299.7 2880.3 297.1 3058 297.1 3058 299.7 2880.3 299.7" fill="#000000" class="color000 svgShape"/></defs><defs><polyline id="eb" points="2880.9 297.3 2880.9 295.3 3057.4 295.3 3057.4 297.3 2880.9 297.3" fill="#000000" class="color000 svgShape"/></defs><defs><polyline id="ec" points="2881.5 295.5 2881.5 293.5 3056.8 293.5 3056.8 295.5 2881.5 295.5" fill="#000000" class="color000 svgShape"/></defs><defs><polyline id="ed" points="2882 293.7 2882 292.3 3056.2 292.3 3056.2 293.7 2882 293.7" fill="#000000" class="color000 svgShape"/></defs><defs><polyline id="ee" points="2882.6 292.5 2882.6 290.6 3055.6 290.6 3055.6 292.5 2882.6 292.5" fill="#000000" class="color000 svgShape"/></defs><defs><polyline id="ef" points="2883.2 290.7 2883.2 289.4 3055 289.4 3055 290.7 2883.2 290.7" fill="#000000" class="color000 svgShape"/></defs><defs><polyline id="eg" points="2883.8 289.5 2883.8 288.2 3054.4 288.2 3054.4 289.5 2883.8 289.5" fill="#000000" class="color000 svgShape"/></defs><defs><polyline id="eh" points="2884.4 288.3 2884.4 287.6 3053.8 287.6 3053.8 288.3 2884.4 288.3" fill="#000000" class="color000 svgShape"/></defs><defs><polyline id="ei" points="2885 287.8 2885 286.4 3053.2 286.4 3053.2 287.8 2885 287.8" fill="#000000" class="color000 svgShape"/></defs><defs><polyline id="ej" points="2885.6 286.6 2885.6 285.8 3052.6 285.8 3052.6 286.6 2885.6 286.6" fill="#000000" class="color000 svgShape"/></defs><defs><polyline id="ek" points="2886.2 286 2886.2 284.6 3052 284.6 3052 286 2886.2 286" fill="#000000" class="color000 svgShape"/></defs><defs><polyline id="el" points="2886.8 284.8 2886.8 284 3051.4 284 3051.4 284.8 2886.8 284.8" fill="#000000" class="color000 svgShape"/></defs><defs><polyline id="em" points="2887.4 284.2 2887.4 282.8 3050.8 282.8 3050.8 284.2 2887.4 284.2" fill="#000000" class="color000 svgShape"/></defs><defs><polyline id="en" points="2888 283 2888 282.2 3050.2 282.2 3050.2 283 2888 283" fill="#000000" class="color000 svgShape"/></defs><defs><polyline id="eo" points="2888.6 282.4 2888.6 281.6 3049.6 281.6 3049.6 282.4 2888.6 282.4" fill="#000000" class="color000 svgShape"/></defs><defs><polyline id="ep" points="2889.2 281.8 2889.2 281 3049 281 3049 281.8 2889.2 281.8" fill="#000000" class="color000 svgShape"/></defs><defs><polyline id="eq" points="2889.8 281.2 2889.8 280.4 3048.4 280.4 3048.4 281.2 2889.8 281.2" fill="#000000" class="color000 svgShape"/></defs><defs><polyline id="er" points="2890.4 280.6 2890.4 279.2 3047.8 279.2 3047.8 280.6 2890.4 280.6" fill="#000000" class="color000 svgShape"/></defs><defs><polyline id="es" points="2891 279.4 2891 278.6 3047.2 278.6 3047.2 279.4 2891 279.4" fill="#000000" class="color000 svgShape"/></defs><defs><polyline id="et" points="2891.6 278.8 2891.6 278 3046.6 278 3046.6 278.8 2891.6 278.8" fill="#000000" class="color000 svgShape"/></defs><defs><polyline id="eu" points="2892.2 278.2 2892.2 277.4 3046 277.4 3046 278.2 2892.2 278.2" fill="#000000" class="color000 svgShape"/></defs><defs><polyline id="ev" points="2892.8 277.6 2892.8 276.8 3045.4 276.8 3045.4 277.6 2892.8 277.6" fill="#000000" class="color000 svgShape"/></defs><defs><polyline id="ew" points="2894 277 2894 276.2 3044.2 276.2 3044.2 277 2894 277" fill="#000000" class="color000 svgShape"/></defs><defs><polyline id="ex" points="2894.6 276.4 2894.6 275.6 3043.6 275.6 3043.6 276.4 2894.6 276.4" fill="#000000" class="color000 svgShape"/></defs><defs><polyline id="ey" points="2895.2 275.8 2895.2 275 3043 275 3043 275.8 2895.2 275.8" fill="#000000" class="color000 svgShape"/></defs><defs><polyline id="ez" points="2895.8 275.2 2895.8 274.4 3042.4 274.4 3042.4 275.2 2895.8 275.2" fill="#000000" class="color000 svgShape"/></defs><defs><polyline id="eA" points="2897 274.6 2897 273.8 3041.2 273.8 3041.2 274.6 2897 274.6" fill="#000000" class="color000 svgShape"/></defs><defs><polyline id="eB" points="2897.6 274 2897.6 273.2 3040.6 273.2 3040.6 274 2897.6 274" fill="#000000" class="color000 svgShape"/></defs><defs><polyline id="eC" points="2898.8 273.4 2898.8 272.6 3039.4 272.6 3039.4 273.4 2898.8 273.4" fill="#000000" class="color000 svgShape"/></defs><defs><polyline id="eD" points="2899.4 272.8 2899.4 272 3038.8 272 3038.8 272.8 2899.4 272.8" fill="#000000" class="color000 svgShape"/></defs><defs><polyline id="eE" points="2900.6 272.2 2900.6 271.4 3037.6 271.4 3037.6 272.2 2900.6 272.2" fill="#000000" class="color000 svgShape"/></defs><defs><polyline id="eF" points="2901.8 271.6 2901.8 270.8 3036.4 270.8 3036.4 271.6 2901.8 271.6" fill="#000000" class="color000 svgShape"/></defs><defs><polyline id="eG" points="2902.4 271 2902.4 270.2 3035.8 270.2 3035.8 271 2902.4 271" fill="#000000" class="color000 svgShape"/></defs><defs><polyline id="eH" points="2903.6 270.4 2903.6 269.6 3034.6 269.6 3034.6 270.4 2903.6 270.4" fill="#000000" class="color000 svgShape"/></defs><defs><polyline id="eI" points="2905.4 269.8 2905.4 269 3032.8 269 3032.8 269.8 2905.4 269.8" fill="#000000" class="color000 svgShape"/></defs><defs><polyline id="eJ" points="2906.6 269.2 2906.6 268.4 3031.7 268.4 3031.7 269.2 2906.6 269.2" fill="#000000" class="color000 svgShape"/></defs><defs><polyline id="eK" points="2908.3 268.6 2908.3 267.8 3029.9 267.8 3029.9 268.6 2908.3 268.6" fill="#000000" class="color000 svgShape"/></defs><defs><polyline id="eL" points="2910.1 268 2910.1 267.2 3028.1 267.2 3028.1 268 2910.1 268" fill="#000000" class="color000 svgShape"/></defs><defs><polyline id="eM" points="2912.5 267.4 2912.5 266.6 3025.7 266.6 3025.7 267.4 2912.5 267.4" fill="#000000" class="color000 svgShape"/></defs><path fill="#8a6e6a" fill-rule="evenodd" d="M1679.4,220.7c12.5-14.9,37-35,58.1-26.9  c24.4,9.3,44.3,88.2,49.5,111.6l1.2,5.2l-637.9-37.4l21.6-41.6L1679.4,220.7L1679.4,220.7z" clip-rule="evenodd" class="color8A6E6A svgShape"/><path fill="#323130" fill-rule="evenodd" d="M1157.1,269.6l17.6-34l506.9-10.9c0,0,29.3-36.7,54.2-27.2  c24.9,9.5,46.9,108.6,46.9,108.6L1157.1,269.6L1157.1,269.6z" clip-rule="evenodd" class="color323130 svgShape"/><path fill-rule="evenodd" stroke="#000" stroke-miterlimit="22.926" stroke-width=".567" d="  M1215.8,203.1l23.3,17.5c5.1,3.9,6.2,11.2,2.4,16.4l-26.1,35.7c-3.8,5.2-11.1,6.3-16.2,2.4l-23.3-17.5c-5.1-3.9-6.2-11.2-2.4-16.4  l26.1-35.7C1203.4,200.4,1210.7,199.3,1215.8,203.1L1215.8,203.1z" clip-rule="evenodd" class="colorStroke000 svgStroke"/><path fill="#757475" fill-rule="evenodd" stroke="#000" stroke-miterlimit="22.926" stroke-width=".567" d="  M1193,181.5l83.7,60.9c2.4,1.7,3,5.2,1.3,7.6l0,0c-1.7,2.4-5.1,3-7.5,1.2l-83.7-60.9c-2.4-1.7-3-5.2-1.3-7.6l0,0  C1187.3,180.4,1190.6,179.8,1193,181.5L1193,181.5z" clip-rule="evenodd" class="color757475 svgShape colorStroke000 svgStroke"/><path fill="#515052" fill-rule="evenodd" stroke="#000" stroke-miterlimit="22.926" stroke-width=".567" d="  M1155.3,229.1l46.2,7.6c10.2,1.7,17.2,11.4,15.5,21.6l-8.9,55.5c-1.6,10.2-11.3,17.1-21.5,15.5l-46.2-7.6  c-10.2-1.7-17.2-11.4-15.5-21.6l8.9-55.5C1135.5,234.4,1145.1,227.5,1155.3,229.1L1155.3,229.1z" clip-rule="evenodd" class="color515052 svgShape colorStroke000 svgStroke"/><path fill-rule="evenodd" d="M1464,122.2h53.9c10.6,0,19.2,8.6,19.2,19.2v174.8c0,10.6-8.6,19.2-19.2,19.2H1464  c-10.6,0-19.2-8.6-19.2-19.2V141.4C1444.8,130.8,1453.4,122.2,1464,122.2L1464,122.2z" clip-rule="evenodd" fill="#000000" class="color000 svgShape"/><path fill="#474443" fill-rule="evenodd" stroke="#000" stroke-miterlimit="22.926" stroke-width=".567" d="  M1476.9,126.3h28.1c15.5,0,28.1,12.6,28.1,28.1v148.9c0,15.5-12.6,28.1-28.1,28.1h-28.1c-15.5,0-28.1-12.6-28.1-28.1V154.4  C1448.8,138.9,1461.5,126.3,1476.9,126.3L1476.9,126.3z" clip-rule="evenodd" class="color474443 svgShape colorStroke000 svgStroke"/><path fill="#333231" fill-rule="evenodd" d="M1476.9 126.3h22.9c0 0-17.7 14.5-16.3 45.7 1.3 31.2 0 32.6-10.7 32.6s-16.1-1.4-16.1-1.4v-47.5C1456.7 155.7 1458.3 139 1476.9 126.3L1476.9 126.3zM1520.9 127.6c7.4 5.2 12.2 13.8 12.2 23.5v148c0 14.2-10.4 26.1-23.9 28.2-7.4-5.2-12.2-13.8-12.2-23.5v-148C1497 141.5 1507.4 129.7 1520.9 127.6L1520.9 127.6z" clip-rule="evenodd" class="color333231 svgShape"/><path fill-rule="evenodd" d="M1544.9,119.7h53.9c10.6,0,19.2,8.6,19.2,19.2v174.8c0,10.6-8.6,19.2-19.2,19.2  h-53.9c-10.6,0-19.2-8.6-19.2-19.2V138.9C1525.7,128.3,1534.3,119.7,1544.9,119.7L1544.9,119.7z" clip-rule="evenodd" fill="#000000" class="color000 svgShape"/><path fill="#474443" fill-rule="evenodd" stroke="#000" stroke-miterlimit="22.926" stroke-width=".567" d="  M1557.8,123.7h28.1c15.5,0,28.1,12.6,28.1,28.1v148.9c0,15.5-12.6,28.1-28.1,28.1h-28.1c-15.5,0-28.1-12.6-28.1-28.1V151.8  C1529.7,136.4,1542.4,123.7,1557.8,123.7L1557.8,123.7z" clip-rule="evenodd" class="color474443 svgShape colorStroke000 svgStroke"/><path fill="#333231" fill-rule="evenodd" d="M1557.8 123.7h22.9c0 0-17.7 14.5-16.3 45.7 1.3 31.2 0 32.6-10.7 32.6-10.7 0-16.1-1.4-16.1-1.4v-47.5C1537.6 153.1 1539.2 136.4 1557.8 123.7L1557.8 123.7zM1601.8 125c7.4 5.2 12.2 13.8 12.2 23.5v148c0 14.2-10.4 26.1-23.9 28.2-7.4-5.2-12.2-13.8-12.2-23.5v-148C1577.9 139 1588.3 127.1 1601.8 125L1601.8 125z" clip-rule="evenodd" class="color333231 svgShape"/><path fill-rule="evenodd" d="M3.6,566.4c-3.5-3.9-4.3-9.8-3.1-14.7c3-12.3,17.6-22.3,27.6-28.1  c9.6-5.6,19.3-11.4,29.1-16.8L13,451c-3.3-3.8-2.6-9.3-0.3-13.5c4.8-8.5,17.8-16.6,26-21.3l11.3-7.3l-2.4-58.6  c-6.4-6.4-12.7-13.3-18.6-20.1c-6-7-21.6-24.6-15-34.5c0.9-1.4,2.2-2.5,3.7-3.3c5.8-2.9,12.4-5.3,18.4-7.5  c7.5-2.7,15.1-5.3,22.7-7.8l0.9-0.3L828,248.4c14.9-12.8,30.2-25.3,45.4-37.7c34.4-27.9,69.5-55.3,105.3-81.3  c27.7-20.1,56.3-39.9,85.7-57.3c20-11.8,47.2-26.9,69.9-31.4l0.2,0l0.2,0c4.3-0.6,9.4,0.4,13.2,2.5c9.7,5.4,11.5,16.5,10.4,26.7  c-0.5,4.3-0.5,8.9-0.5,13.2c-0.1,7.5-0.1,15,0,22.5c0.2,19.9,0.7,39.9,1.3,59.8c0.9,30.9,40.7,61.7,41.9,92.6h434l86,4l53.3-41.9  l319.7-12.4l1.5,0.8c6.2,3.1,15.6,4.7,22.4,4.7c9.9,0,20.3-0.8,30.2-1.2c17.6-0.7,35.2-1.3,52.8-1.4c21-0.1,59.1-0.2,78.6,7.2  l1.5,0.6l37.9,42.4h375.8l34.8-15l312.3,2.9l-41.9,40.4l-23.5,1.3c-1.9,6.5-3,14.7-3.4,20.5c-1.5,21.5,2.7,43.5,9.8,63.7l33.9-1.2  l34.4,11.6l-55.1,36.3c2.5,3.9,4.6,8.2,6.1,11.9c5.1,12.7,6.4,26.2,4.4,39.6l42.6,1.3l8.4,33.9l-0.5,1.7  c-4.5,16.4-15.2,38.7-29.4,49l-24.2,47.8l-1.7,1c-17.3,10-42.3,17.7-61.9,18.5l-0.3,0c-4.4,0-12.2-5.8-16.8-9.3l-330.1,25.8  l-1.8-1.1c-17.7-10.6-36-20.7-54.2-30.4c-39.4-21.1-79.8-41-121-58.3c-40.6-17-92.4-36.2-136.4-39.4c-50.7-3.7-107.3-4.7-157.5,4.3  c-25.9,4.7-72.4,16.2-80.5,46.4c-2.7,9.9-4.8,20.1-6.6,30.2c-5.4,30.6-8.6,64.6-9.2,95.8l-0.1,6.7H853.4l-1.9-1.7  c-18-16.2-36.8-31.9-55.6-47.2c-40.6-33.1-82.9-64.9-126.7-93.5c-45.7-29.8-116.3-71.6-171.2-76.3c-36.7-3.1-201.2-17.1-216.6,33.3  l-0.3,0.9l-0.5,0.8c-4.9,7.9-15.1,13.1-24.4,15.5v11.3c4.9,5,6,13.9,5.3,20.5c-2.8,28.1-6.2,56.2-9.4,84.3l-0.1,0.7l-0.2,0.7  c-2.5,7.6-9.8,12.9-17.4,14c-3,0.4-6.9,0.4-9.9,0.4c-6.1,0.1-12.3,0.1-18.4,0c-17.4-0.1-34.7-0.3-52.1-0.5  c-26.6-0.3-53.3-0.8-79.9-1.2l-3.3-0.1L3.6,566.4L3.6,566.4z" clip-rule="evenodd" fill="#000000" class="color000 svgShape"/><path fill="#d3d3de" fill-rule="evenodd" stroke="#000" stroke-miterlimit="22.926" stroke-width=".567" d="  M74.3,651.6L8.7,562c0,0-12-12.2,22.8-32.6C66.3,509,67.6,509,67.6,509l-49.5-62.5c0,0-6.7-6.8,24.1-24.4l14.7-9.5l-2.7-65.2  c0,0-44.2-43.5-33.5-48.9c10.7-5.4,40.2-14.9,40.2-14.9l769.6-28.5c0,0,223.5-191.5,305.2-207.8c0,0,18.7-2.7,16.1,21.7  c-2.7,24.4,4,195.6,4,195.6h479.1l88.3,4.1l53.5-42.1l315.9-12.2c0,0,10.7,5.4,25.4,5.4c14.7,0,127.1-8.1,159.3,4.1l38.8,43.5h380.1  l34.8-14.9l294.4,2.7l-28.1,27.2l-25.4,1.4c0,0-16.1,38,6.7,97.8l37.5-1.4l20.1,6.8l-49.5,32.6c0,0,21.4,23.1,12,59.8l45.5,1.4  l6.7,27.2c0,0-9.4,34-28.1,46.2l-24.1,47.5c0,0-28.1,16.3-58.9,17.7c0,0-2.7,0-14.7-9.5l-330.6,25.8c0,0-202.1-120.9-314.5-129  c-112.4-8.1-230.2,1.4-244.9,55.7c-14.7,54.3-16.1,127.7-16.1,127.7H855.9c0,0-230.2-207.8-357.3-218.7  c-127.1-10.9-211.5-1.4-223.5,38c0,0-6.7,10.9-25.4,13.6V543c0,0,6.7,2.7,5.4,16.3c-1.3,13.6-9.4,84.2-9.4,84.2s-2.7,8.1-12,9.5  C224.2,654.3,74.3,651.6,74.3,651.6L74.3,651.6z" clip-rule="evenodd" class="colorD3D3DE svgShape colorStroke000 svgStroke"/><path fill="#b9ccbc" fill-rule="evenodd" stroke="#000" stroke-miterlimit="22.926" stroke-width=".567" d="  M74.3,651.6L8.7,562c0,0-12-12.2,22.8-32.6c33.7-19.7,36-20.4,36.1-20.4h0h0l20.1,25.8l161.9,8.1c0,0,6.7,2.7,5.4,16.3  c-1.3,13.6-9.4,84.2-9.4,84.2s-2.7,8.1-12,9.5C224.2,654.3,74.3,651.6,74.3,651.6L74.3,651.6z" clip-rule="evenodd" class="colorB9CCBC svgShape colorStroke000 svgStroke"/><path fill="#fefefe" fill-rule="evenodd" d="M253.5,573.2c-0.8,7-1.7,15.5-2.7,24.2l-184.5-8.3l8,62.5l-28.1-72  l-33.5-25.8l62.9,20.4L253.5,573.2L253.5,573.2z" clip-rule="evenodd" class="colorFEFEFE svgShape"/><path fill-rule="evenodd" d="M1999,631.3c1-23.8,7.3-53,17-73.6c6.6-14,15.9-27.1,28.9-35.7  c19.6-13,47.9-20.3,70.7-24.8c19-3.7,38.3-6.2,57.6-7.9c12.2-1.1,24.9-2,37.2-2c60.3,0,120.6,0,180.8,0c60.6,0,121.3,0.2,181.9,0  l380.1-1.4c13.3,0,32.1-3.2,43.4-10.3l1-0.6l49.7,1.5l7.7,31.2l-0.3,1c-4.4,15.9-14.9,38.1-28.9,47.9l-24.2,47.7l-1,0.6  c-16.9,9.8-41.5,17.3-60.7,18.2l-0.2,0c-3.7,0-12.1-6.4-16-9.4l-330.3,25.8l-1.1-0.7c-17.7-10.6-36.1-20.7-54.3-30.5  c-39.5-21.2-80-41.1-121.3-58.4c-40.9-17.2-92.9-36.4-137.2-39.6c-49.6-3.6-223.3-11.8-240.8,52.7c-2.7,10-4.9,20.2-6.7,30.5  c-5.4,30.7-8.7,64.9-9.2,96.2l-0.1,4H854.4l-1.1-1c-15.9-14.2-32.3-28.1-48.8-41.6l-7.4-6.1l9.4-1.1c5.6-0.7,11.3-1.3,16.9-1.8  l0.2,0l906.2-8.2L1999,631.3L1999,631.3z" clip-rule="evenodd" fill="#000000" class="color000 svgShape"/><path fill="#b9ccbc" fill-rule="evenodd" stroke="#000" stroke-miterlimit="22.926" stroke-width=".567" d="  M2998.7,479.2l45.5,1.4l6.7,27.2c0,0-9.4,34-28.1,46.2l-24.1,47.5c0,0-28.1,16.3-58.9,17.7c0,0-2.7,0-14.7-9.5l-330.6,25.8  c0,0-202.1-120.9-314.5-129c-112.4-8.1-230.2,1.4-244.9,55.7c-14.7,54.3-16.1,127.7-16.1,127.7H855.9c0,0-18.9-17.1-48.9-41.7  c5.3-0.6,10.8-1.2,16.8-1.8l906.1-8.1l273-2.7c0,0,1.3-81.5,44.2-110c42.8-28.5,141.9-34,163.3-34c21.4,0,362.7,0,362.7,0l380.1-1.4  C2953.2,490,2981.3,490,2998.7,479.2L2998.7,479.2z" clip-rule="evenodd" class="colorB9CCBC svgShape colorStroke000 svgStroke"/><path fill-rule="evenodd" d="M3025.9,556.7l-24.2,47.7l-1,0.6c-16.9,9.8-41.5,17.3-60.7,18.2l-0.2,0  c-4.2,0-14.2-8-17.2-10.4l-1.3-1.1l-0.2-1.7c-1.7-14.8-3.7-29.7-6.1-44.4c-1.8-11.3-3.8-24.1-7.2-35c-2.6-8.5-3.5-17.9-0.5-26.3  c1.1-3.1,3.2-7,5.7-9.2l0.1-0.1l11.9-8.9l28.1-0.1c13.3,0,32.1-3.2,43.4-10.3l1-0.6l49.7,1.5l7.7,31.2l-0.3,1  C3050.4,524.7,3039.8,546.9,3025.9,556.7L3025.9,556.7z" clip-rule="evenodd" fill="#000000" class="color000 svgShape"/><path fill="#fefefe" fill-rule="evenodd" stroke="#000" stroke-miterlimit="22.926" stroke-width=".567" d="  M2998.7,479.2l45.5,1.4l6.7,27.2c0,0-9.4,34-28.1,46.2l-24.1,47.5c0,0-28.1,16.3-58.9,17.7c0,0-2.7,0-14.7-9.5  c0,0-6.7-58.4-13.4-80.1c-6.7-21.7,4-31.2,4-31.2l10.7-8.1l26.8-0.1C2953.2,490,2981.3,490,2998.7,479.2L2998.7,479.2z" clip-rule="evenodd" class="colorFEFEFE svgShape colorStroke000 svgStroke"/><path fill-rule="evenodd" d="M253.7,526v0.8L122.2,524l-41.3-37.8c-10.6-10.2-17.9-27.6,3.4-31.4  c4.3-0.8,9.1-1,13.5-1.3c7.1-0.4,14.3-0.6,21.5-0.8c18.9-0.5,37.8-0.7,56.7-0.8c31.2-0.2,62.6-0.4,93.8,0.1  c34.2,0.5,68.8,2,102.9,3.6c20.2,1,40.5,2.1,60.6,3.8c7.8,0.7,15.6,1.4,23.4,2.5c5,0.7,10.7,1.5,15.5,3l0.2,0.1l26.6,9.7l-28.2-1.8  c-36.1-2.3-177-11.2-191.8,37.2l-0.2,0.5l-0.3,0.5C273.6,519.1,262.8,524,253.7,526L253.7,526z" clip-rule="evenodd" fill="#000000" class="color000 svgShape"/><path fill="#cacbd2" fill-rule="evenodd" stroke="#000" stroke-miterlimit="22.926" stroke-width=".567" d="  M471,468.9c-111.7-7.2-184.7,3.6-195.9,40.1c0,0-6.7,10.9-25.4,13.6v0L123.7,520l-40.2-36.7c0,0-21.4-20.4,1.3-24.4  c22.8-4.1,184.7-2.7,184.7-2.7S442.6,460,471,468.9L471,468.9L471,468.9z" clip-rule="evenodd" class="colorCACBD2 svgShape colorStroke000 svgStroke"/><path fill-rule="evenodd" d="M290.7,471.6c-7.1-0.2-14.1-0.4-21.2-0.5c-31.1-0.3-62.3-0.3-93.4-0.1  c-18.8,0.1-37.6,0.3-56.3,0.8c-7,0.2-14,0.4-20.9,0.8c-1.5,0.1-3,0.2-4.6,0.3l35.4,32.3l118.9,2.5c4.3-0.7,10.4-2.7,13.6-6  C267.2,488,277.9,478.4,290.7,471.6L290.7,471.6z" clip-rule="evenodd" fill="#000000" class="color000 svgShape"/><path fill="#8b8b8c" fill-rule="evenodd" d="M829,251c15.2-13,30.6-25.7,46.1-38.2  c34.4-27.9,69.4-55.2,105.2-81.3c27.6-20.1,56.1-39.8,85.5-57.2c19.6-11.6,46.7-26.6,69.1-31.1l0.1,0l0.1,0  c3.5-0.5,7.7,0.3,10.9,1.8l10.1,5l-10.9,2.6c-9.9,2.4-23.9,7.1-30.5,15.6c-1.5,2-3.5,5.6-3.2,8.2l0,0.2l0,0.3  c0.7,29.9,1.4,59.8,2,89.8c0.4,18.7,0.7,37.3,0.9,56c0.1,10.4,0.6,22.3-0.2,32.6c-1.2,16-19.4,20-32.3,18.7  c-40.4-0.5-80.9-1.1-121.3-1.8c-26.5-0.5-53-1-79.4-1.7c-9.3-0.3-18.6-0.5-27.9-1c-4.2-0.2-10.1-0.2-14.2-1.1  c-6-1.2-10.5-6.3-13.7-11.2l-3.9-6L829,251L829,251z" clip-rule="evenodd" class="color8B8B8C svgShape"/><path fill-rule="evenodd" stroke="#000" stroke-miterlimit="22.926" stroke-width=".567" d="M828.7,255.1  l1.8-0.1c0,0,223.5-191.5,305.2-207.8c0,0,4.3-0.6,8.6,1.4c-39.6,9.6-36.7,28.4-36.7,28.4s4,160.3,2.7,177.9  c-1.3,17.7-28.1,14.9-28.1,14.9s-228.9-2.7-242.2-5.4C835.6,263.7,831.8,259.9,828.7,255.1L828.7,255.1z" clip-rule="evenodd" class="colorStroke000 svgStroke"/><path fill="#757475" fill-rule="evenodd" stroke="#000" stroke-miterlimit="22.926" stroke-width=".567" d="  M1723.2,268.6l53.5-42.1l315.9-12.2c0,0,10.7,5.4,25.4,5.4c14.7,0,127.1-8.1,159.3,4.1l38.8,43.5L1723.2,268.6L1723.2,268.6z" clip-rule="evenodd" class="color757475 svgShape colorStroke000 svgStroke"/><path fill-rule="evenodd" d="M2704,350.1h-199.1c-8.1,0-14.7-6.7-14.7-14.9c0-8.2,6.6-14.9,14.7-14.9H2703  c4.7-7.5,13-12.2,22-12.2h277c14.4,0,26.1,11.9,26.1,26.5c0,14.6-11.7,26.5-26.1,26.5h-277C2716.6,361,2708.8,356.9,2704,350.1  L2704,350.1z" clip-rule="evenodd" fill="#000000" class="color000 svgShape"/><path fill="#fefefe" fill-rule="evenodd" stroke="#000" stroke-miterlimit="22.926" stroke-width=".567" d="  M2725,314.8h277c10.7,0,19.4,8.9,19.4,19.7l0,0c0,10.8-8.7,19.7-19.4,19.7h-277c-7.6,0-14.1-4.4-17.3-10.9h-202.9  c-4.4,0-8-3.7-8-8.1l0,0c0-4.5,3.6-8.1,8-8.1h202.2C2710,319.9,2716.9,314.8,2725,314.8L2725,314.8z" clip-rule="evenodd" class="colorFEFEFE svgShape colorStroke000 svgStroke"/><path fill-rule="evenodd" d="M3023.7,325.5c1.2,2.9,1.8,5.9,1.8,9c0,1.4-0.1,2.7-0.4,4.1l-0.6,3.4h-257.4  c-5.2,0-9.4-4.3-9.4-9.5c0-5.2,4.2-9.5,9.4-9.5h255.5L3023.7,325.5L3023.7,325.5z" clip-rule="evenodd" fill="#000000" class="color000 svgShape"/><path fill="#595c66" fill-rule="evenodd" d="M3020,327c0.9,2.3,1.5,4.8,1.5,7.5l0,0c0,1.2-0.1,2.3-0.3,3.4h-254  c-2.9,0-5.4-2.4-5.4-5.4l0,0c0-3,2.4-5.4,5.4-5.4H3020L3020,327z" clip-rule="evenodd" class="color595C66 svgShape"/><path fill="#fefefe" fill-rule="evenodd" d="M1076.8,261.9c0,0-207.4-8.1-207.4-13.6c0-5.4,74.9-67.9,74.9-67.9  s111.1-89.6,132.5-92.4c21.4-2.7-128.5,126.3-124.5,135.8C956.3,233.3,1114.6,246.9,1076.8,261.9L1076.8,261.9z" clip-rule="evenodd" class="colorFEFEFE svgShape"/><path fill-rule="evenodd" d="M1068,313.5c15.7-5.7,32.5-9.7,48.9-12.9c21.1-4.2,42.4-7.3,63.7-9.9  c50.2-6.1,101-9.6,151.4-12.1c69-3.4,138.3-4.8,207.4-5c31.8-0.1,63.7-0.1,95.4,0.5l1008.8-10.8l31.2-24.5l416,8.5L3052,270  l-314.8,2.7l-29.4,12.2l-1070.3,13.6c-51.5-1.1-103.6-0.2-155.1,1.4c-33.2,1-66.4,2.5-99.6,4.1c-51.9,2.5-103.9,5.1-155.7,8.1  c-34.7,5.3-69.5,10.4-104.2,16.3c-3,0.5-15.6,3.1-13.9,8.8c11.1,2.7,23.8,3.9,35,5.1c19.9,2,39.9,3.5,59.8,4.7  c52.5,3.3,105.1,5.2,157.6,6.9c88,2.8,176.1,4.6,264.2,5.8l1248.6,17.7l142.3-1.4l95,18.4l-0.8,7.4l-88.9-1.5l-1379-14.8  c-23.4-0.3-46.9-0.9-70.3-1.4c-50.9-1-101.9-2.1-152.8-3.2c-68.8-1.5-137.8-2.6-206.6-5c-36-1.2-72.3-6.4-107.5-13.9  c-15.5-3.3-31.7-7.1-46.8-11.9h-989l-1.2-1.4c-5.7-6.8-6.1-16.2,2.8-20l0.7-0.3L1068,313.5L1068,313.5z" clip-rule="evenodd" fill="#000000" class="color000 svgShape"/><path fill="#edf6ec" fill-rule="evenodd" d="M71.6,346.1h987.7c0,0,73.6,23.1,153.9,25.8  c80.3,2.7,429.6,9.5,429.6,9.5l1379,14.8l85.2,1.5l-91-17.7l-141.9,1.4l-1248.7-17.7c0,0-451-5.4-519.3-23.1c0,0-8-12.2,16.1-16.3  c24.1-4.1,104.4-16.3,104.4-16.3s166-9.5,255.6-12.2c89.7-2.7,155.3-1.4,155.3-1.4l1069.4-13.6l29.4-12.2l314.5-2.7l25.4-14.9  l-400.2-8.1l-31.2,24.4l-1010.1,10.9c0,0-436.3-8.1-566.1,39.4L73,332.5C73,332.5,63.6,336.5,71.6,346.1L71.6,346.1z" clip-rule="evenodd" class="colorEDF6EC svgShape"/><path fill="#b9ccbc" fill-rule="evenodd" d="M3071.9,253.6l4.4-2.6l-400.2-8.1l-31.2,24.4l-1010.1,10.9  c0,0-436.3-8.1-566.1,39.4L73,332.5c0,0-4.6,2-4.6,6.5l995-6.5c0,0,46.8-19,85.7-25.8c38.8-6.8,246.3-19,246.3-19l392.1-2.7  l896.7-12.2l28.1-19.7L3071.9,253.6L3071.9,253.6z" clip-rule="evenodd" class="colorB9CCBC svgShape"/><path fill-rule="evenodd" d="M779.5,246.9c-2.3-2.8-4.8-6.2-5.9-9.3c-6.8-3.2-21.5-10.2-24.9-13.6  c-6-6.1,8.3-13.5,12.2-15.8c3.8-2.2,7.7-4.3,11.6-6.4c4.1-9.6,13.8-17,23.9-18.7c7.1-1.2,16.2-2.8,23.4-2.8h4.1l-1.9,67.2l18,26.7  l-6.1,1.1c-22.6,4.1-51.1,4.9-73.6,1.4l-7.6-1.2L779.5,246.9L779.5,246.9z" clip-rule="evenodd" fill="#000000" class="color000 svgShape"/><path fill="#cacbd2" fill-rule="evenodd" stroke="#000" stroke-miterlimit="22.926" stroke-width=".567" d="  M760.9,272.7l24.1-25.8c0,0-7.4-7.5-8-12.2c0,0-22.8-10.9-25.4-13.6c-2.7-2.7,24.1-16.3,24.1-16.3s5.4-14.9,21.4-17.7  c16.1-2.7,22.8-2.7,22.8-2.7l-1.4,51.3l-0.4,13l15.2,22.6C833.2,271.4,795.7,278.1,760.9,272.7L760.9,272.7z" clip-rule="evenodd" class="colorCACBD2 svgShape colorStroke000 svgStroke"/><path fill="#9f9fa6" fill-rule="evenodd" stroke="#000" stroke-miterlimit="22.926" stroke-width=".567" d="  M760.9,272.7l24.1-25.8l33,1l0,0.9l15.2,22.6C833.2,271.4,795.7,278.1,760.9,272.7L760.9,272.7z" clip-rule="evenodd" class="color9F9FA6 svgShape colorStroke000 svgStroke"/><path fill="#696a73" fill-rule="evenodd" stroke="#000" stroke-miterlimit="22.926" stroke-width=".567" d="  M777,234.7c0,0-22.8-10.9-25.4-13.6c-2.7-2.7,24.1-16.3,24.1-16.3h43.6l-0.9,31C818.3,235.8,791.7,237.4,777,234.7L777,234.7z" clip-rule="evenodd" class="color696A73 svgShape colorStroke000 svgStroke"/><path fill="#fefefe" fill-rule="evenodd" d="M838.5,659.8l16.1,14.9l1153.7-4.1c0,0,0-5.4-9.4-6.8  c-9.4-1.4-1084.1,5.4-1084.1,5.4s-17.4-5.4-9.4-6.8c8-1.4,13.4-1.4,13.4-1.4l1082.8-9.5l1.3-9.5L845.2,653  C845.2,653,831.8,650.3,838.5,659.8L838.5,659.8z M2375,509l223.5,95.1l306.5-21.7l-5.4-50.3l-4-27.2l-329.2-1.4  c0,0,223.5,20.4,215.5,38c-8,17.7-171.3,44.8-171.3,44.8l-182-69.3l27-13.6L2375,509L2375,509z" clip-rule="evenodd" class="colorFEFEFE svgShape"/><path fill="#b7b8c4" fill-rule="evenodd" d="M1017,622.5l-149.9-10.9c0,0-240.2-255-567.8-200.2l-231.8,9.9  l-3.2-58.5l283.5-1.1c0,0-56.2,9.5-41.5,20.4c0,0-6.7,4.1,38.8-2.7c45.5-6.8,279.7-8.1,428.3,104.6C922,596.7,1017,622.5,1017,622.5  L1017,622.5z M1737.9,352.8c0,0-556.8-6.8-556.8-13.6c0-6.8,12-12.2,88.3-19c76.3-6.8,278.4-12.2,278.4-12.2s-56.2,9.5-46.8,19  C1510.4,336.5,1737.9,352.8,1737.9,352.8L1737.9,352.8z M2510.2,359.6c0,0-62.8-19.7-12-46.2l64.2-17.7l-364,8.1  c0,0,80.3,12.2,57.6,25.8c-22.8,13.6-124.5,27.2-124.5,27.2L2510.2,359.6L2510.2,359.6z M1033.9,623.1l935.5-10.9  c0,0,19.1-107,58.3-127.5c39.2-20.4,50.1-23.3,50.1-23.3l-170,6.8c0,0,38.8,47.5,16.1,72c-22.8,24.4-861.9,61.1-861.9,61.1  S1007.2,605.5,1033.9,623.1L1033.9,623.1z M514.6,356.9L1050,361c0,0,87,31.2,160.6,36.7c73.6,5.4,405.5,12.2,405.5,12.2h468.4  c0,0-865.8,26.7-1042.6-10.9l-37.5-12.2C1004.5,386.8,463.8,366.4,514.6,356.9L514.6,356.9z" clip-rule="evenodd" class="colorB7B8C4 svgShape"/><path fill-rule="evenodd" d="M273.7,411.2c0,0,222.2-23.1,349.3,44.8C750.2,524,858.6,613.6,858.6,613.6  s13.4,9.5,37.5,9.5h33.3l0.1,10.9l5.4,59.8c2,3.4,4.7,0,4.7,0l-3.7-48.2l689.6-7.4c0,0,12.2-3.4,14.4-20.3l308.2-2.8  c0,0,0-9.5-37.5-12.2c-13.3-1-128.4,0.6-270.4,3.3c-0.1-40.9-1.2-224.8-1.2-224.8l0.2-17.4l-1.7-69.5l-0.2-16.3l-4.2,0l-0.2,16.2  l1.8,69.5l-0.3,17.4l0.5,225c-257.9,4.9-600.8,13.4-586.2,16.9l585.6-5.3c-1,5.3-3.9,12.6-11.4,13.5c-11.8,1.3-665,9.2-687.3,9.5  l-0.6-8.1l-0.2-9.5H971c0,0-6.7-5.4-18.7-5.4h-17.6l-4.2-256.3c66.7-0.1,116-0.4,119.6-0.4c12,0,4-4.8,4-4.8l-123.7-0.2l-0.2-10  c-4.7-14.9,4.7-26.5,4.7-26.5c5.3-33.3,25.7-47.3,25.7-47.3l-7.3-0.1c-19.5,15.1-23.8,47.5-23.8,47.5s-1,0-5.3,7.4  c-4.3,7.4,1.6,23.1,1.6,23.1l0.1,5.9l-385.8-0.5c-22.4,5.7,227.8,6.1,385.9,5.8l3.4,256.3h-31.9c0,0-17.4,0-33.5-9.5  c-16.1-9.5-137.9-116.8-236.9-160.3C627.1,447.9,508,374.6,273.7,411.2L273.7,411.2z M2926.4,509c0,0,111.1-1.4,112.4-4.1  c1.3-2.7,0-19,0-19s-2.7,0-4,5.4c-1.3,5.4,2.7,8.2-6.7,9.5C3018.8,502.2,2926.4,503.6,2926.4,509L2926.4,509z M3014.8,513.1l-87,9.5  c0,0-5.4,0-2.7,16.3c2.7,16.3,8,42.1,8,42.1s10.7,14.9,16.1,17.7c5.4,2.7,36.1,0,36.1,0l-32.1-5.4l-16.1-13.6l-6.7-47.5  c0,0,0-4.1,12-5.4C2954.5,525.3,3016.1,517.2,3014.8,513.1L3014.8,513.1z M2574.4,502.2h313.2c0,0,4,6.8-2.7,6.8  C2878.2,509,2559.7,510.4,2574.4,502.2L2574.4,502.2z M2341.5,503.6c0,0,135.2,39.4,253,111.4l318.5-23.1l-13.4-59.8l5.4,50.3  l-306.5,21.7l-212.8-96.4l72.3-4.1H2341.5L2341.5,503.6z M1978.8,591.9c0,0,8-100.5,100.4-119.5c92.3-19,278.4,1.4,278.4,1.4  s-192.7-31.2-279.7-12.2C1990.9,480.5,1977.5,568.8,1978.8,591.9L1978.8,591.9z M62.3,404.5l-1.3-53c0,0,1.3,2.7,9.4,4.1  c8,1.4,179.3,2.7,179.3,2.7L69,362.4L62.3,404.5L62.3,404.5z M28.8,443.8l69.6,70.6l-73.6-67.9c0,0-4.7-2.7-0.7-6.1  c4-3.4,35.5-22.4,35.5-22.4l196.7-5.4L60.9,426.2L28.8,443.8L28.8,443.8z" clip-rule="evenodd" fill="#000000" class="color000 svgShape"/><path fill="#474443" fill-rule="evenodd" d="M1775.4,245.6l319.9-5.4c0,0-2.7,4.1,25.4,6.8  c28.1,2.7,156.6,4.1,156.6,4.1s0-8.1-6.7-8.1s-147.2-4.1-147.2-4.1s-14.7-4.1-24.1-6.8C2089.9,229.3,1775.4,237.4,1775.4,245.6  L1775.4,245.6z" clip-rule="evenodd" class="color474443 svgShape"/><path fill-rule="evenodd" d="M1185,229.3h28.7c12.4,0,22.6,10.2,22.6,22.6v15.8c0,13.8-11.3,25.1-25.1,25.1  H1185c-17.5,0-31.7-14.3-31.7-31.7v0C1153.2,243.6,1167.5,229.3,1185,229.3L1185,229.3z" clip-rule="evenodd" fill="#000000" class="color000 svgShape"/><path fill="#fefefe" fill-rule="evenodd" d="M1184.5,231.2c-16.2,0-29.4,13.4-29.4,29.9  c0,16.4,13.2,29.9,29.4,29.9h27.1c12.6,0,22.9-10.4,22.9-23.2v-15.8c0-11.4-9.2-20.7-20.4-20.7H1184.5L1184.5,231.2z" clip-rule="evenodd" class="colorFEFEFE svgShape"/><path fill="#b9ccbc" fill-rule="evenodd" d="M1194.4,261.2c5.6,0,10.3,3.7,10.3,8.2c0,4.5-4.7,8.2-10.3,8.2  h-27.1c-2,0-3.7-1.4-3.7-3v-12.5c0-0.5,0.6-1,1.2-1H1194.4L1194.4,261.2z" clip-rule="evenodd" class="colorB9CCBC svgShape"/><path fill="#c7bcbd" fill-rule="evenodd" d="M1158.4,254.6c-0.6,2.2-0.9,4.6-0.9,7c0,14.7,11.9,26.7,26.3,26.7  h27.1c1.7,0,3.3-0.2,4.8-0.6c-1-0.9-1.8-2-2.5-3.1c-0.5,0-1.1,0.1-1.6,0.1h-27.1c-14.5,0-26.3-12-26.3-26.7  C1158.2,256.8,1158.3,255.7,1158.4,254.6L1158.4,254.6z" clip-rule="evenodd" class="colorC7BCBD svgShape"/><path fill="#b9ccbc" fill-rule="evenodd" d="M1184.5,234.3c-8.2,0-15.6,3.9-20.4,9.9c4.7-4.3,10.8-6.9,17.6-6.9  h29.5c9.5,0,17.3,7.9,17.3,17.6v15.8c0,4.6-1.5,8.8-4.1,12.2c4.3-3.7,7-9.2,7-15.3v-15.8c0-9.6-7.8-17.6-17.3-17.6H1184.5  L1184.5,234.3z" clip-rule="evenodd" class="colorB9CCBC svgShape"/><path fill-rule="evenodd" stroke="#000" stroke-miterlimit="22.926" stroke-width=".283" d="  M1135.4,271.7c5.4,0,9.8,5.3,9.8,11.9c0,6.6-4.4,11.9-9.8,11.9c-5.4,0-9.8-5.3-9.8-11.9C1125.7,277,1130,271.7,1135.4,271.7  L1135.4,271.7z" clip-rule="evenodd" class="colorStroke000 svgStroke"/><path fill="#faddde" fill-rule="evenodd" d="M1135.4,273c4.7,0,8.5,4.8,8.5,10.6c0,5.9-3.8,10.6-8.5,10.6  c-4.7,0-8.5-4.8-8.5-10.6C1126.9,277.7,1130.7,273,1135.4,273L1135.4,273z" clip-rule="evenodd" class="colorFADDDE svgShape"/><path fill="#cacbd2" fill-rule="evenodd" d="M1135.4,274.2c0.1,0,0.3,0,0.4,0c-3.2,1-5.6,4.7-5.6,9.1  c0,5,3,9.1,6.9,9.4c-0.5,0.2-1.1,0.2-1.7,0.2c-4,0-7.3-4.2-7.3-9.4C1128.1,278.4,1131.4,274.2,1135.4,274.2L1135.4,274.2z" clip-rule="evenodd" class="colorCACBD2 svgShape"/><path fill-rule="evenodd" d="M1132.3,278c0,0-8,10.5,7.7,13.7l21.8-15.8l-0.2-9.6L1132.3,278L1132.3,278z" clip-rule="evenodd" fill="#000000" class="color000 svgShape"/><path fill="#faddde" fill-rule="evenodd" d="M1133.1,279c-0.9,1.3-1.6,3.2-1.6,4.7c0,4.2,4.8,5.9,8.2,6.7  l20.9-15.1l-0.2-7.1L1133.1,279L1133.1,279z" clip-rule="evenodd" class="colorFADDDE svgShape"/><path fill="#cacbd2" fill-rule="evenodd" d="M1133.9,280c-0.6,1-1.2,2.5-1.2,3.7c0,3.3,4,4.7,6.7,5.3l19.9-14.4  l0-1.8l-18.4,13.3c-2.7-0.7-6.8-2.1-6.7-5.3c0-0.3,0-0.6,0.1-0.9L1133.9,280L1133.9,280z" clip-rule="evenodd" class="colorCACBD2 svgShape"/><path fill="none" stroke="#E61D4C" stroke-miterlimit="22.926" stroke-width=".216" d="M1163.8,262.3c3,0,5.5,3,5.5,6.7  c0,3.7-2.5,6.7-5.5,6.7c-3,0-5.5-3-5.5-6.7C1158.3,265.3,1160.7,262.3,1163.8,262.3L1163.8,262.3z" class="colorStrokeE61D4C svgStroke"/><path fill="#faddde" fill-rule="evenodd" stroke="#000" stroke-miterlimit="22.926" stroke-width=".216" d="  M1163.8,261.1c3.7,0,6.8,3.5,6.8,7.9c0,4.4-3,7.9-6.8,7.9c-3.7,0-6.8-3.6-6.8-7.9C1157,264.6,1160.1,261.1,1163.8,261.1  L1163.8,261.1z" clip-rule="evenodd" class="colorFADDDE svgShape colorStroke000 svgStroke"/><path fill="#c9caca" fill-rule="evenodd" d="M1165.9,261.5c2.7,1,4.7,4,4.7,7.6c0,4.3-3,7.8-6.6,7.9  c-2.7-1-4.7-4-4.7-7.6C1159.2,265.1,1162.2,261.6,1165.9,261.5L1165.9,261.5z" clip-rule="evenodd" class="colorC9CACA svgShape"/></svg>